<svg width="56" height="56" viewBox="0 0 56 56" fill="none" xmlns="http://www.w3.org/2000/svg">
<path d="M28.6441 5.0046C16.485 5.24555 6.544 15.1707 6.2279 27.3876C6.10255 32.1846 7.44872 36.6557 9.83314 40.3931L4.93895 45.42C2.91424 47.4981 4.38031 51 7.27432 51H28.8022C41.3701 51 51.8261 40.9516 51.9978 28.324C52.1749 15.3159 41.6072 4.74723 28.6441 5.0046Z" fill="url(#paint0_linear_228_1261)"/>
<path d="M20.4943 30.9655C22.216 30.9655 23.6116 29.5891 23.6116 27.8911C23.6116 26.1932 22.216 24.8168 20.4943 24.8168C18.7726 24.8168 17.377 26.1932 17.377 27.8911C17.377 29.5891 18.7726 30.9655 20.4943 30.9655Z" fill="white"/>
<path d="M29.6066 30.9655C31.3283 30.9655 32.7239 29.5891 32.7239 27.8911C32.7239 26.1932 31.3283 24.8168 29.6066 24.8168C27.8849 24.8168 26.4893 26.1932 26.4893 27.8911C26.4893 29.5891 27.8849 30.9655 29.6066 30.9655Z" fill="#E6E3FF"/>
<path d="M38.7218 30.9655C40.4435 30.9655 41.8392 29.5891 41.8392 27.8911C41.8392 26.1932 40.4435 24.8168 38.7218 24.8168C37.0002 24.8168 35.6045 26.1932 35.6045 27.8911C35.6045 29.5891 37.0002 30.9655 38.7218 30.9655Z" fill="#C8C5FF"/>
<defs>
<linearGradient id="paint0_linear_228_1261" x1="3.99881" y1="27.9982" x2="52.0005" y2="27.9982" gradientUnits="userSpaceOnUse">
<stop stop-color="#ABA2F4"/>
<stop offset="1" stop-color="#7158ED"/>
</linearGradient>
</defs>
</svg>
