<svg width="56" height="56" viewBox="0 0 56 56" fill="none" xmlns="http://www.w3.org/2000/svg">
<path d="M50.1478 40.5557L33.5869 50.4751C30.1922 52.5083 25.8025 52.5083 22.4078 50.4751L5.84951 40.5557C3.3835 39.0786 3.3835 35.7761 5.84951 34.3014L22.4105 24.382C25.8052 22.3488 30.1948 22.3488 33.5896 24.382L50.1505 34.3014C52.6165 35.7785 52.6165 39.081 50.1505 40.5557H50.1478Z" fill="#E6E3FF"/>
<path d="M50.1478 31.1272L33.5869 41.0465C30.1922 43.0797 25.8025 43.0797 22.4078 41.0465L5.84951 31.1272C3.3835 29.65 3.3835 26.3476 5.84951 24.8729L22.4105 14.9535C25.8052 12.9203 30.1948 12.9203 33.5896 14.9535L50.1505 24.8729C52.6165 26.35 52.6165 29.6524 50.1505 31.1272H50.1478Z" fill="#C8C5FF"/>
<path d="M50.1504 21.6986L33.5885 31.618C30.1936 33.6512 25.8037 33.6512 22.4088 31.618L5.84961 21.6986C3.38346 20.2214 3.38346 16.919 5.84961 15.4443L22.4088 5.5249C25.8037 3.4917 30.1936 3.4917 33.5885 5.5249L50.1504 15.4443C52.6165 16.9214 52.6165 20.2239 50.1504 21.6986Z" fill="url(#paint0_linear_228_1248)"/>
<defs>
<linearGradient id="paint0_linear_228_1248" x1="4" y1="18.5726" x2="51.9974" y2="18.5726" gradientUnits="userSpaceOnUse">
<stop stop-color="#ABA2F4"/>
<stop offset="1" stop-color="#7158ED"/>
</linearGradient>
</defs>
</svg>
