<svg preserveAspectRatio="none" width="100%" height="100%" overflow="visible" style="display: block;" viewBox="0 0 16.5996 15.1426" fill="none" xmlns="http://www.w3.org/2000/svg">
<g id="live area">
<g id="Union">
<mask id="path-1-inside-1_2377_9707" fill="white">
<path d="M1.59961 13.543H15V11.3428H16.5996V14.3428C16.5996 14.7846 16.2416 15.1426 15.7998 15.1426H0.799805C0.357977 15.1426 0 14.7846 0 14.3428V11.3428H1.59961V13.543ZM9.10059 0.000976562V8.84961L12.166 5.7832L13.2979 6.91504L8.2998 11.9121L3.30371 6.91504L4.43555 5.7832L7.5 8.84863V0H8.2998L9.10059 0.000976562Z"/>
</mask>
<path d="M1.59961 13.543H15V11.3428H16.5996V14.3428C16.5996 14.7846 16.2416 15.1426 15.7998 15.1426H0.799805C0.357977 15.1426 0 14.7846 0 14.3428V11.3428H1.59961V13.543ZM9.10059 0.000976562V8.84961L12.166 5.7832L13.2979 6.91504L8.2998 11.9121L3.30371 6.91504L4.43555 5.7832L7.5 8.84863V0H8.2998L9.10059 0.000976562Z" fill="var(--fill-0, #333333)"/>
<path d="M1.59961 13.543H0.599609V14.543H1.59961V13.543ZM15 13.543V14.543H16V13.543H15ZM15 11.3428V10.3428H14V11.3428H15ZM16.5996 11.3428H17.5996V10.3428H16.5996V11.3428ZM0 11.3428V10.3428H-1V11.3428H0ZM1.59961 11.3428H2.59961V10.3428H1.59961V11.3428ZM9.10059 0.000976562H10.1006V-0.997805L9.10181 -0.999023L9.10059 0.000976562ZM9.10059 8.84961H8.10059V11.2644L9.80781 9.5566L9.10059 8.84961ZM12.166 5.7832L12.8731 5.0761L12.1659 4.36888L11.4588 5.07621L12.166 5.7832ZM13.2979 6.91504L14.0049 7.62221L14.7121 6.91511L14.005 6.20793L13.2979 6.91504ZM8.2998 11.9121L7.59263 12.6191L8.29967 13.3263L9.00684 12.6193L8.2998 11.9121ZM3.30371 6.91504L2.5966 6.20793L1.88957 6.91497L2.59653 7.62208L3.30371 6.91504ZM4.43555 5.7832L5.14277 5.07621L4.43566 4.36888L3.72844 5.0761L4.43555 5.7832ZM7.5 8.84863L6.79278 9.55563L8.5 11.2634V8.84863H7.5ZM7.5 0V-1H6.5V0H7.5ZM8.2998 0L8.30102 -1H8.2998V0ZM1.59961 13.543V14.543H15V13.543V12.543H1.59961V13.543ZM15 13.543H16V11.3428H15H14V13.543H15ZM15 11.3428V12.3428H16.5996V11.3428V10.3428H15V11.3428ZM16.5996 11.3428H15.5996V14.3428H16.5996H17.5996V11.3428H16.5996ZM16.5996 14.3428H15.5996C15.5996 14.2323 15.6893 14.1426 15.7998 14.1426V15.1426V16.1426C16.7939 16.1426 17.5996 15.3369 17.5996 14.3428H16.5996ZM15.7998 15.1426V14.1426H0.799805V15.1426V16.1426H15.7998V15.1426ZM0.799805 15.1426V14.1426C0.910262 14.1426 1 14.2323 1 14.3428H0H-1C-1 15.3369 -0.194308 16.1426 0.799805 16.1426V15.1426ZM0 14.3428H1V11.3428H0H-1V14.3428H0ZM0 11.3428V12.3428H1.59961V11.3428V10.3428H0V11.3428ZM1.59961 11.3428H0.599609V13.543H1.59961H2.59961V11.3428H1.59961ZM9.10059 0.000976562H8.10059V8.84961H9.10059H10.1006V0.000976562H9.10059ZM9.10059 8.84961L9.80781 9.5566L12.8732 6.4902L12.166 5.7832L11.4588 5.07621L8.39337 8.14262L9.10059 8.84961ZM12.166 5.7832L11.4589 6.49031L12.5907 7.62215L13.2979 6.91504L14.005 6.20793L12.8731 5.0761L12.166 5.7832ZM13.2979 6.91504L12.5908 6.20786L7.59277 11.2049L8.2998 11.9121L9.00684 12.6193L14.0049 7.62221L13.2979 6.91504ZM8.2998 11.9121L9.00698 11.2051L4.01089 6.208L3.30371 6.91504L2.59653 7.62208L7.59263 12.6191L8.2998 11.9121ZM3.30371 6.91504L4.01082 7.62215L5.14265 6.49031L4.43555 5.7832L3.72844 5.0761L2.5966 6.20793L3.30371 6.91504ZM4.43555 5.7832L3.72833 6.4902L6.79278 9.55563L7.5 8.84863L8.20722 8.14164L5.14277 5.07621L4.43555 5.7832ZM7.5 8.84863H8.5V0H7.5H6.5V8.84863H7.5ZM7.5 0V1H8.2998V0V-1H7.5V0ZM8.2998 0L8.29858 0.999999L9.09937 1.00098L9.10059 0.000976562L9.10181 -0.999023L8.30102 -0.999999L8.2998 0Z" fill="var(--stroke-0, #333333)" mask="url(#path-1-inside-1_2377_9707)"/>
</g>
</g>
</svg>
