<svg preserveAspectRatio="none" width="100%" height="100%" overflow="visible" style="display: block;" viewBox="0 0 19.5996 18.0107" fill="none" xmlns="http://www.w3.org/2000/svg">
<g id="live area">
<g id="Union">
<mask id="path-1-inside-1_2363_9174" fill="white">
<path d="M1.59961 16.4102H18V13.6104H19.5996V17.21C19.5996 17.6517 19.2415 18.0106 18.7998 18.0107H0.799805C0.357977 18.0107 0 17.6518 0 17.21V13.6104H1.59961V16.4102ZM10.5996 11.0059L14.5527 7.05273L15.6836 8.18359L9.7998 14.0674L3.91699 8.18359L5.04785 7.05273L9.00098 11.0059V0H10.5996V11.0059Z"/>
</mask>
<path d="M1.59961 16.4102H18V13.6104H19.5996V17.21C19.5996 17.6517 19.2415 18.0106 18.7998 18.0107H0.799805C0.357977 18.0107 0 17.6518 0 17.21V13.6104H1.59961V16.4102ZM10.5996 11.0059L14.5527 7.05273L15.6836 8.18359L9.7998 14.0674L3.91699 8.18359L5.04785 7.05273L9.00098 11.0059V0H10.5996V11.0059Z" fill="var(--fill-0, #333333)"/>
<path d="M1.59961 16.4102H0.599609V17.4102H1.59961V16.4102ZM18 16.4102V17.4102H19V16.4102H18ZM18 13.6104V12.6104H17V13.6104H18ZM19.5996 13.6104H20.5996V12.6104H19.5996V13.6104ZM18.7998 18.0107V19.0107H18.8L18.7998 18.0107ZM0 13.6104V12.6104H-1V13.6104H0ZM1.59961 13.6104H2.59961V12.6104H1.59961V13.6104ZM10.5996 11.0059H9.59961V13.4201L11.3067 11.713L10.5996 11.0059ZM14.5527 7.05273L15.2598 6.34563L14.5527 5.63852L13.8456 6.34563L14.5527 7.05273ZM15.6836 8.18359L16.3907 8.8907L17.0978 8.18359L16.3907 7.47649L15.6836 8.18359ZM9.7998 14.0674L9.09264 14.7744L9.79975 15.4817L10.5069 14.7745L9.7998 14.0674ZM3.91699 8.18359L3.20989 7.47649L2.50284 8.18353L3.20983 8.89064L3.91699 8.18359ZM5.04785 7.05273L5.75496 6.34563L5.04785 5.63852L4.34074 6.34563L5.04785 7.05273ZM9.00098 11.0059L8.29387 11.713L10.001 13.4201V11.0059H9.00098ZM9.00098 0V-1H8.00098V0H9.00098ZM10.5996 0H11.5996V-1H10.5996V0ZM1.59961 16.4102V17.4102H18V16.4102V15.4102H1.59961V16.4102ZM18 16.4102H19V13.6104H18H17V16.4102H18ZM18 13.6104V14.6104H19.5996V13.6104V12.6104H18V13.6104ZM19.5996 13.6104H18.5996V17.21H19.5996H20.5996V13.6104H19.5996ZM19.5996 17.21H18.5996C18.5996 17.1008 18.6879 17.0108 18.7996 17.0107L18.7998 18.0107L18.8 19.0107C19.7952 19.0105 20.5996 18.2027 20.5996 17.21H19.5996ZM18.7998 18.0107V17.0107H0.799805V18.0107V19.0107H18.7998V18.0107ZM0.799805 18.0107V17.0107C0.91185 17.0107 1 17.1011 1 17.21H0H-1C-1 18.2025 -0.195896 19.0107 0.799805 19.0107V18.0107ZM0 17.21H1V13.6104H0H-1V17.21H0ZM0 13.6104V14.6104H1.59961V13.6104V12.6104H0V13.6104ZM1.59961 13.6104H0.599609V16.4102H1.59961H2.59961V13.6104H1.59961ZM10.5996 11.0059L11.3067 11.713L15.2598 7.75984L14.5527 7.05273L13.8456 6.34563L9.8925 10.2988L10.5996 11.0059ZM14.5527 7.05273L13.8456 7.75984L14.9765 8.8907L15.6836 8.18359L16.3907 7.47649L15.2598 6.34563L14.5527 7.05273ZM15.6836 8.18359L14.9765 7.47649L9.0927 13.3603L9.7998 14.0674L10.5069 14.7745L16.3907 8.8907L15.6836 8.18359ZM9.7998 14.0674L10.507 13.3603L4.62416 7.47655L3.91699 8.18359L3.20983 8.89064L9.09264 14.7744L9.7998 14.0674ZM3.91699 8.18359L4.6241 8.8907L5.75496 7.75984L5.04785 7.05273L4.34074 6.34563L3.20989 7.47649L3.91699 8.18359ZM5.04785 7.05273L4.34074 7.75984L8.29387 11.713L9.00098 11.0059L9.70808 10.2988L5.75496 6.34563L5.04785 7.05273ZM9.00098 11.0059H10.001V0H9.00098H8.00098V11.0059H9.00098ZM9.00098 0V1H10.5996V0V-1H9.00098V0ZM10.5996 0H9.59961V11.0059H10.5996H11.5996V0H10.5996Z" fill="var(--stroke-0, #333333)" mask="url(#path-1-inside-1_2363_9174)"/>
</g>
</g>
</svg>
