<svg preserveAspectRatio="none" width="100%" height="100%" overflow="visible" style="display: block;" viewBox="0 0 20 20" fill="none" xmlns="http://www.w3.org/2000/svg">
<g id="icon" clip-path="url(#clip0_2377_10086)">
<path id="Vector" d="M11.4215 16.4171C10.3636 17.4751 9.09287 17.9968 7.60954 17.9824C6.12634 17.968 4.85124 17.4274 3.78431 16.3604C2.71751 15.2936 2.17522 14.0169 2.1574 12.5302C2.13962 11.0436 2.65972 9.77123 3.7177 8.71325L9.57262 2.85834C10.3173 2.11362 11.2175 1.74783 12.2731 1.76085C13.3288 1.77391 14.2301 2.15394 14.9771 2.90098C15.7242 3.64802 16.1042 4.54937 16.1173 5.60499C16.1303 6.66063 15.7645 7.56078 15.0198 8.30549L9.47301 13.8523C9.0416 14.2837 8.51618 14.4978 7.89676 14.4947C7.27734 14.4916 6.74716 14.2696 6.30619 13.8286C5.86525 13.3877 5.6415 12.8591 5.635 12.2431C5.62859 11.627 5.84443 11.0999 6.28253 10.6618L11.5211 5.42317C11.6521 5.2922 11.8069 5.22745 11.9856 5.22884C12.1641 5.23027 12.32 5.29754 12.4531 5.43064C12.5861 5.56368 12.6524 5.71855 12.6521 5.89526C12.6516 6.07213 12.5859 6.226 12.4549 6.35697L7.21633 11.5956C7.0417 11.7702 6.95508 11.9866 6.95635 12.2446C6.95764 12.5028 7.05242 12.7259 7.24061 12.9141C7.42883 13.1023 7.64866 13.1938 7.90011 13.1884C8.15159 13.1831 8.36458 13.0931 8.53921 12.9185L14.086 7.37169C14.579 6.87865 14.8212 6.28886 14.8126 5.6023C14.804 4.91577 14.5496 4.32238 14.0494 3.82217C13.5492 3.32197 12.9566 3.06897 12.2716 3.06314C11.5866 3.05735 10.9982 3.30032 10.5064 3.79214L4.6515 9.64705C3.8503 10.4482 3.45755 11.4114 3.4732 12.5364C3.48889 13.6614 3.90166 14.6289 4.71157 15.4388C5.52006 16.2473 6.48455 16.6571 7.6051 16.6683C8.72566 16.6795 9.68654 16.2845 10.4877 15.4833L16.0345 9.93653C16.1655 9.80556 16.3203 9.74081 16.499 9.7422C16.6775 9.74362 16.8333 9.8109 16.9664 9.944C17.0995 10.077 17.1658 10.2319 17.1654 10.4086C17.165 10.5855 17.0993 10.7394 16.9683 10.8703L11.4215 16.4171Z" fill="var(--fill-0, #333333)" stroke="var(--stroke-2, #333333)" stroke-width="0.25"/>
</g>
<defs>
<clipPath id="clip0_2377_10086">
<rect width="20" height="20" fill="white"/>
</clipPath>
</defs>
</svg>
