<svg width="120" height="120" viewBox="0 0 120 120" fill="none" xmlns="http://www.w3.org/2000/svg">
<g filter="url(#filter0_d_2139_4763)">
<path d="M76.9039 103.532L80.1113 97.9513C80.6501 97.0105 81.6603 96.4444 82.7379 96.4869L89.1149 96.7211C91.3794 96.8019 92.8695 94.3543 91.7751 92.3494L71.8402 55.8136C71.0614 54.3876 69.2894 53.8683 67.8793 54.6558L53.0417 62.9352C51.6316 63.7227 51.1181 65.5148 51.8968 66.9408L71.8317 103.477C72.9261 105.481 75.7674 105.516 76.9039 103.532Z" fill="#402AAC"/>
<path d="M43.0957 103.532L39.8882 97.9513C39.3494 97.0105 38.3392 96.4444 37.2617 96.4869L30.8847 96.7211C28.6201 96.8019 27.13 94.3543 28.2244 92.3494L48.1594 55.8136C48.9381 54.3876 50.7102 53.8683 52.1203 54.6558L66.9578 62.9352C68.3679 63.7227 68.8814 65.5148 68.1027 66.9408L48.1678 103.477C47.0734 105.481 44.2321 105.516 43.0914 103.532H43.0957Z" fill="#5E4BC8"/>
<path d="M64.4261 17.2834L68.244 22.6113C69.0814 23.7756 70.5617 24.2646 71.9175 23.816L78.103 21.7745C81.6369 20.6102 85.2704 23.2766 85.2654 27.0369L85.2555 33.6199C85.2555 35.0615 86.1726 36.3368 87.5233 36.7803L93.7138 38.8066C97.2527 39.966 98.6383 44.2807 96.4502 47.3202L92.6173 52.638C91.7799 53.8023 91.7799 55.38 92.6173 56.5444L96.4502 61.8622C98.6383 64.9017 97.2527 69.2164 93.7138 70.3758L87.5233 72.4021C86.1676 72.8456 85.2505 74.1209 85.2555 75.5625L85.2654 82.1455C85.2654 85.9058 81.6418 88.5722 78.103 87.4079L71.9175 85.3664C70.5667 84.9178 69.0814 85.4068 68.244 86.5711L64.4261 91.899C62.2429 94.9435 57.7571 94.9435 55.5739 91.899L51.756 86.5711C50.9186 85.4068 49.4383 84.9178 48.0825 85.3664L41.897 87.4079C38.3631 88.5722 34.7296 85.9058 34.7346 82.1455L34.7445 75.5625C34.7445 74.1209 33.8274 72.8456 32.4767 72.4021L26.2862 70.3758C22.7473 69.2164 21.3617 64.9017 23.5498 61.8622L27.3827 56.5444C28.2201 55.38 28.2201 53.8023 27.3827 52.638L23.5498 47.3202C21.3617 44.2807 22.7473 39.966 26.2862 38.8066L32.4767 36.7803C33.8324 36.3368 34.7495 35.0615 34.7445 33.6199L34.7346 27.0369C34.7346 23.2766 38.3582 20.6102 41.897 21.7745L48.0825 23.816C49.4333 24.2646 50.9186 23.7756 51.756 22.6113L55.5739 17.2834C57.7571 14.2389 62.2429 14.2389 64.4261 17.2834Z" fill="url(#paint0_linear_2139_4763)"/>
<path d="M56.7802 68.5154C55.569 68.5154 54.3579 68.0466 53.4308 67.1141L45.7599 59.3566C43.9108 57.4866 43.9108 54.4522 45.7599 52.5821C47.6091 50.7121 50.6097 50.7121 52.4538 52.5821L56.7752 56.9523L67.5413 46.0646C69.3905 44.1946 72.3911 44.1946 74.2402 46.0646C76.0894 47.9347 76.0894 50.9691 74.2402 52.8392L60.1247 67.1141C59.2026 68.0466 57.9864 68.5154 56.7752 68.5154H56.7802Z" fill="#402AAC"/>
</g>
<defs>
<filter id="filter0_d_2139_4763" x="14.5" y="11" width="91" height="106" filterUnits="userSpaceOnUse" color-interpolation-filters="sRGB">
<feFlood flood-opacity="0" result="BackgroundImageFix"/>
<feColorMatrix in="SourceAlpha" type="matrix" values="0 0 0 0 0 0 0 0 0 0 0 0 0 0 0 0 0 0 127 0" result="hardAlpha"/>
<feOffset dy="4"/>
<feGaussianBlur stdDeviation="4"/>
<feComposite in2="hardAlpha" operator="out"/>
<feColorMatrix type="matrix" values="0 0 0 0 0 0 0 0 0 0 0 0 0 0 0 0 0 0 0.08 0"/>
<feBlend mode="normal" in2="BackgroundImageFix" result="effect1_dropShadow_2139_4763"/>
<feBlend mode="normal" in="SourceGraphic" in2="effect1_dropShadow_2139_4763" result="shape"/>
</filter>
<linearGradient id="paint0_linear_2139_4763" x1="43.5937" y1="24.0622" x2="112.344" y2="110" gradientUnits="userSpaceOnUse">
<stop stop-color="#E8E8FF"/>
<stop offset="1" stop-color="#A4A5FD"/>
</linearGradient>
</defs>
</svg>
