<svg width="64" height="58" viewBox="0 0 64 58" fill="none" xmlns="http://www.w3.org/2000/svg">
<g filter="url(#filter0_d_2033_3289)">
<path d="M38.7995 6.71875H12.5106C10.0195 6.71875 8 8.77936 8 11.3212V43.4016C8 45.9434 10.0195 48.004 12.5106 48.004H38.7995C41.2907 48.004 43.3102 45.9434 43.3102 43.4016V11.3212C43.3102 8.77936 41.2907 6.71875 38.7995 6.71875Z" fill="white"/>
<path d="M33.6087 4H17.7049C16.1919 4 14.9653 5.25153 14.9653 6.79538V9.3205C14.9653 10.8643 16.1919 12.1159 17.7049 12.1159H33.6087C35.1217 12.1159 36.3483 10.8643 36.3483 9.3205V6.79538C36.3483 5.25153 35.1217 4 33.6087 4Z" fill="#5E4BC8"/>
<rect x="14" y="18" width="18" height="2" rx="1" fill="#A7A8E3"/>
<path d="M14 25C14 24.4477 14.4477 24 15 24H25C25.5523 24 26 24.4477 26 25C26 25.5523 25.5523 26 25 26H15C14.4477 26 14 25.5523 14 25Z" fill="#A7A8E3"/>
<path d="M14 31C14 30.4477 14.4477 30 15 30H25C25.5523 30 26 30.4477 26 31C26 31.5523 25.5523 32 25 32H15C14.4477 32 14 31.5523 14 31Z" fill="#A7A8E3"/>
<path d="M14 37C14 36.4477 14.4477 36 15 36H25C25.5523 36 26 36.4477 26 37C26 37.5523 25.5523 38 25 38H15C14.4477 38 14 37.5523 14 37Z" fill="#A7A8E3"/>
<path d="M42.6265 42.8772C37.1631 42.8772 32.7197 38.3433 32.7197 32.7687C32.7197 27.1941 37.1631 22.6602 42.6265 22.6602C48.0898 22.6602 52.5333 27.1941 52.5333 32.7687C52.5333 38.3433 48.0898 42.8772 42.6265 42.8772ZM42.6265 26.6899C39.3414 26.6899 36.6729 29.4167 36.6729 32.7647C36.6729 36.1127 39.3453 38.8395 42.6265 38.8395C45.9077 38.8395 48.58 36.1127 48.58 32.7647C48.58 29.4167 45.9077 26.6899 42.6265 26.6899Z" fill="#402AAC"/>
<path d="M54.0236 46.4309C53.5175 46.4309 53.0115 46.2332 52.6241 45.8419L46.8247 39.9245C46.0539 39.1379 46.0539 37.8592 46.8247 37.0726C47.5956 36.286 48.8488 36.286 49.6197 37.0726L55.419 42.9901C56.1899 43.7767 56.1899 45.0554 55.419 45.8419C55.0316 46.2373 54.5256 46.4309 54.0196 46.4309H54.0236Z" fill="#402AAC"/>
</g>
<defs>
<filter id="filter0_d_2033_3289" x="0" y="0" width="63.9971" height="60.0042" filterUnits="userSpaceOnUse" color-interpolation-filters="sRGB">
<feFlood flood-opacity="0" result="BackgroundImageFix"/>
<feColorMatrix in="SourceAlpha" type="matrix" values="0 0 0 0 0 0 0 0 0 0 0 0 0 0 0 0 0 0 127 0" result="hardAlpha"/>
<feOffset dy="4"/>
<feGaussianBlur stdDeviation="4"/>
<feComposite in2="hardAlpha" operator="out"/>
<feColorMatrix type="matrix" values="0 0 0 0 0 0 0 0 0 0 0 0 0 0 0 0 0 0 0.08 0"/>
<feBlend mode="normal" in2="BackgroundImageFix" result="effect1_dropShadow_2033_3289"/>
<feBlend mode="normal" in="SourceGraphic" in2="effect1_dropShadow_2033_3289" result="shape"/>
</filter>
</defs>
</svg>
