<svg width="64" height="64" viewBox="0 0 64 64" fill="none" xmlns="http://www.w3.org/2000/svg">
<g clip-path="url(#clip0_2033_4717)">
<g filter="url(#filter0_d_2033_4717)">
<path d="M45.1723 56H14.7499C13.7828 56 13.001 55.1171 13.001 54.0252V9.97483C13.001 8.88287 13.7828 8 14.7499 8H45.1723C47.847 8 50.0116 10.4488 50.0116 13.4645V50.5355C50.0116 53.5559 47.8429 56 45.1723 56Z" fill="white"/>
<path d="M43.0188 15.3621H21.8547C20.9738 15.3621 20.2598 16.0814 20.2598 16.9688V22.0805C20.2598 22.9679 20.9738 23.6873 21.8547 23.6873H43.0188C43.8996 23.6873 44.6137 22.9679 44.6137 22.0805V16.9688C44.6137 16.0814 43.8996 15.3621 43.0188 15.3621Z" fill="#A7A8E3"/>
<path d="M54.3904 28.1056L51.2996 25.4041C50.5559 24.7547 49.432 24.8338 48.7833 25.583L46.1636 28.6259L51.9442 33.6794L54.5639 30.6365C55.2085 29.8872 55.13 28.755 54.3862 28.1014L54.3904 28.1056Z" fill="#A7A8E3"/>
<path d="M46.1676 28.626L35.503 41.7508L34.6187 42.7789L33.8336 47.6034C33.6518 48.719 34.7014 49.6389 35.7757 49.3018L40.4035 47.8365L41.2877 46.8084L51.9524 33.6836L46.1718 28.6301L46.1676 28.626Z" fill="#402AAC"/>
<path d="M14.384 19.354H11.066C9.92557 19.354 9 18.4216 9 17.2727C9 16.1238 9.92557 15.1914 11.066 15.1914H14.384C15.5244 15.1914 16.45 16.1238 16.45 17.2727C16.45 18.4216 15.5244 19.354 14.384 19.354Z" fill="#5E4BC8"/>
<path d="M14.384 26.8719H11.066C9.92557 26.8719 9 25.9394 9 24.7905C9 23.6417 9.92557 22.7092 11.066 22.7092H14.384C15.5244 22.7092 16.45 23.6417 16.45 24.7905C16.45 25.9394 15.5244 26.8719 14.384 26.8719Z" fill="#5E4BC8"/>
<path d="M14.384 34.3894H11.066C9.92557 34.3894 9 33.457 9 32.3081C9 31.1592 9.92557 30.2268 11.066 30.2268H14.384C15.5244 30.2268 16.45 31.1592 16.45 32.3081C16.45 33.457 15.5244 34.3894 14.384 34.3894Z" fill="#5E4BC8"/>
<path d="M14.384 41.9073H11.066C9.92557 41.9073 9 40.9748 9 39.8259C9 38.6771 9.92557 37.7446 11.066 37.7446H14.384C15.5244 37.7446 16.45 38.6771 16.45 39.8259C16.45 40.9748 15.5244 41.9073 14.384 41.9073Z" fill="#5E4BC8"/>
<path d="M14.384 49.4248H11.066C9.92557 49.4248 9 48.4924 9 47.3435C9 46.1946 9.92557 45.2622 11.066 45.2622H14.384C15.5244 45.2622 16.45 46.1946 16.45 47.3435C16.45 48.4924 15.5244 49.4248 14.384 49.4248Z" fill="#5E4BC8"/>
</g>
</g>
<defs>
<filter id="filter0_d_2033_4717" x="1" y="4" width="62" height="64" filterUnits="userSpaceOnUse" color-interpolation-filters="sRGB">
<feFlood flood-opacity="0" result="BackgroundImageFix"/>
<feColorMatrix in="SourceAlpha" type="matrix" values="0 0 0 0 0 0 0 0 0 0 0 0 0 0 0 0 0 0 127 0" result="hardAlpha"/>
<feOffset dy="4"/>
<feGaussianBlur stdDeviation="4"/>
<feComposite in2="hardAlpha" operator="out"/>
<feColorMatrix type="matrix" values="0 0 0 0 0 0 0 0 0 0 0 0 0 0 0 0 0 0 0.08 0"/>
<feBlend mode="normal" in2="BackgroundImageFix" result="effect1_dropShadow_2033_4717"/>
<feBlend mode="normal" in="SourceGraphic" in2="effect1_dropShadow_2033_4717" result="shape"/>
</filter>
<clipPath id="clip0_2033_4717">
<rect width="64" height="64" fill="white"/>
</clipPath>
</defs>
</svg>
