<svg width="64" height="64" viewBox="0 0 64 64" fill="none" xmlns="http://www.w3.org/2000/svg">
<g clip-path="url(#clip0_2033_5158)">
<g filter="url(#filter0_d_2033_5158)">
<path d="M44.33 56.0001H16.6455C14.094 56.0001 12.0234 53.9104 12.0234 51.3355V46.6709H46.7883V53.5191C46.7883 54.8887 45.6871 56.0001 44.33 56.0001Z" fill="#402AAC"/>
<path d="M50.5415 51.2649H21.9458V12.6606L50.5415 12.6606C51.8987 12.6606 52.9999 13.772 52.9999 15.1416V48.7839C52.9999 50.1535 51.8987 51.2649 50.5415 51.2649Z" fill="white"/>
<path d="M21.9459 12.6607C21.9459 10.0858 19.8753 8 17.3239 8H16.622C14.0706 8 12 10.0858 12 12.6607V51.265H12.0271C12.0659 48.7213 14.1171 46.6708 16.6453 46.6708H17.3471C19.7396 46.6708 21.7094 48.5061 21.9459 50.8619V12.6646V12.6607Z" fill="white"/>
<path d="M40.5227 33.4243H33.958C33.4141 33.4243 32.9731 33.8693 32.9731 34.4183V40.5425C32.9731 41.0915 33.4141 41.5365 33.958 41.5365H40.5227C41.0667 41.5365 41.5076 41.0915 41.5076 40.5425V34.4183C41.5076 33.8693 41.0667 33.4243 40.5227 33.4243Z" fill="#A7A8E3"/>
<path d="M47.2889 30.865C47.2889 33.6669 45.0399 35.9366 42.2636 35.9366C39.4873 35.9366 37.2383 33.6669 37.2383 30.865C37.2383 28.0631 39.4873 25.7935 42.2636 25.7935C45.0399 25.7935 47.2889 28.0631 47.2889 30.865Z" fill="#402AAC"/>
<path d="M34.5979 21.6885L30.6777 28.5406C30.2511 29.288 30.7862 30.2233 31.6393 30.2233H39.4758C40.3289 30.2233 40.864 29.288 40.4375 28.5406L36.5173 21.6885C36.0907 20.9411 35.0205 20.9411 34.594 21.6885H34.5979Z" fill="#5E4BC8"/>
<path d="M21.9461 44.9372C21.1318 44.9372 20.4688 44.268 20.4688 43.4462V17.1609C20.4688 16.3391 21.1318 15.6699 21.9461 15.6699C22.7604 15.6699 23.4234 16.3391 23.4234 17.1609V43.4462C23.4234 44.268 22.7604 44.9372 21.9461 44.9372Z" fill="#A7A8E3"/>
</g>
</g>
<defs>
<filter id="filter0_d_2033_5158" x="4" y="4" width="57" height="64" filterUnits="userSpaceOnUse" color-interpolation-filters="sRGB">
<feFlood flood-opacity="0" result="BackgroundImageFix"/>
<feColorMatrix in="SourceAlpha" type="matrix" values="0 0 0 0 0 0 0 0 0 0 0 0 0 0 0 0 0 0 127 0" result="hardAlpha"/>
<feOffset dy="4"/>
<feGaussianBlur stdDeviation="4"/>
<feComposite in2="hardAlpha" operator="out"/>
<feColorMatrix type="matrix" values="0 0 0 0 0 0 0 0 0 0 0 0 0 0 0 0 0 0 0.08 0"/>
<feBlend mode="normal" in2="BackgroundImageFix" result="effect1_dropShadow_2033_5158"/>
<feBlend mode="normal" in="SourceGraphic" in2="effect1_dropShadow_2033_5158" result="shape"/>
</filter>
<clipPath id="clip0_2033_5158">
<rect width="64" height="64" fill="white"/>
</clipPath>
</defs>
</svg>
