<svg width="64" height="64" viewBox="0 0 64 64" fill="none" xmlns="http://www.w3.org/2000/svg">
<g clip-path="url(#clip0_2033_4959)">
<g filter="url(#filter0_d_2033_4959)">
<path d="M32 56C45.2548 56 56 45.2548 56 32C56 18.7452 45.2548 8 32 8C18.7452 8 8 18.7452 8 32C8 45.2548 18.7452 56 32 56Z" fill="white"/>
<path d="M32 8V32L52.0377 45.2091C54.5419 41.4189 56 36.8815 56 32C56 18.7457 45.2543 8 32 8Z" fill="#402AAC"/>
<path d="M52.0376 45.2091L31.9999 32L25.0625 54.9766C27.2587 55.6377 29.5863 56 31.9999 56C40.3727 56 47.7402 51.7072 52.0376 45.2091Z" fill="#5E4BC8"/>
<path d="M25.0625 54.9766L31.9999 32L14.8467 48.7774C17.6406 51.6347 21.141 53.7947 25.0671 54.9766H25.0625Z" fill="#A7A8E3"/>
</g>
<path d="M39.1528 15.2229H51.2148C52.2024 15.2229 52.9999 16.024 52.9999 17.0161V22.0678C52.9999 23.0599 52.2024 23.861 51.2148 23.861H47.314L44.1073 28.1572C43.7892 28.5848 43.1073 28.3606 43.1073 27.8252V23.861H39.1528C38.1652 23.861 37.3677 23.0599 37.3677 22.0678V17.0161C37.3677 16.024 38.1652 15.2229 39.1528 15.2229Z" fill="#A7A8E3"/>
</g>
<defs>
<filter id="filter0_d_2033_4959" x="0" y="4" width="64" height="64" filterUnits="userSpaceOnUse" color-interpolation-filters="sRGB">
<feFlood flood-opacity="0" result="BackgroundImageFix"/>
<feColorMatrix in="SourceAlpha" type="matrix" values="0 0 0 0 0 0 0 0 0 0 0 0 0 0 0 0 0 0 127 0" result="hardAlpha"/>
<feOffset dy="4"/>
<feGaussianBlur stdDeviation="4"/>
<feComposite in2="hardAlpha" operator="out"/>
<feColorMatrix type="matrix" values="0 0 0 0 0 0 0 0 0 0 0 0 0 0 0 0 0 0 0.08 0"/>
<feBlend mode="normal" in2="BackgroundImageFix" result="effect1_dropShadow_2033_4959"/>
<feBlend mode="normal" in="SourceGraphic" in2="effect1_dropShadow_2033_4959" result="shape"/>
</filter>
<clipPath id="clip0_2033_4959">
<rect width="64" height="64" fill="white"/>
</clipPath>
</defs>
</svg>
