<svg width="64" height="64" viewBox="0 0 64 64" fill="none" xmlns="http://www.w3.org/2000/svg">
<g clip-path="url(#clip0_2033_5360)">
<g filter="url(#filter0_d_2033_5360)">
<path d="M41.0159 55.217L42.7265 52.2406C43.0139 51.7389 43.5527 51.437 44.1273 51.4597L47.5284 51.5845C48.7362 51.6277 49.5309 50.3223 48.9472 49.253L38.3152 29.7672C37.8999 29.0067 36.9548 28.7297 36.2028 29.1497L28.2894 33.5654C27.5373 33.9854 27.2635 34.9412 27.6788 35.7017L38.3107 55.1875C38.8944 56.2568 40.4098 56.2749 41.0159 55.217Z" fill="#402AAC"/>
<path d="M22.985 55.217L21.2743 52.2406C20.987 51.7389 20.4482 51.437 19.8735 51.4597L16.4724 51.5845C15.2647 51.6277 14.47 50.3223 15.0536 49.253L25.6856 29.7672C26.1009 29.0067 27.046 28.7297 27.7981 29.1497L35.7115 33.5654C36.4635 33.9854 36.7374 34.9412 36.3221 35.7017L25.6901 55.1875C25.1064 56.2568 23.5911 56.2749 22.9827 55.217H22.985Z" fill="#5E4BC8"/>
<path d="M34.3606 9.2178L36.3968 12.0593C36.8434 12.6803 37.6329 12.9411 38.356 12.7018L41.6549 11.6131C43.5397 10.9921 45.4776 12.4142 45.4749 14.4197L45.4696 17.9306C45.4696 18.6995 45.9587 19.3796 46.6791 19.6162L49.9807 20.6969C51.8681 21.3152 52.6071 23.6164 51.4401 25.2374L49.3959 28.0736C48.9493 28.6946 48.9493 29.536 49.3959 30.157L51.4401 32.9932C52.6071 34.6142 51.8681 36.9154 49.9807 37.5337L46.6791 38.6144C45.956 38.851 45.4669 39.5312 45.4696 40.3L45.4749 43.8109C45.4749 45.8164 43.5423 47.2385 41.6549 46.6175L38.356 45.5288C37.6356 45.2895 36.8434 45.5503 36.3968 46.1713L34.3606 49.0128C33.1962 50.6365 30.8038 50.6365 29.6394 49.0128L27.6032 46.1713C27.1566 45.5503 26.3671 45.2895 25.644 45.5288L22.3451 46.6175C20.4603 47.2385 18.5224 45.8164 18.5251 43.8109L18.5304 40.3C18.5304 39.5312 18.0413 38.851 17.3209 38.6144L14.0193 37.5337C12.1319 36.9154 11.3929 34.6142 12.5599 32.9932L14.6041 30.157C15.0507 29.536 15.0507 28.6946 14.6041 28.0736L12.5599 25.2374C11.3929 23.6164 12.1319 21.3152 14.0193 20.6969L17.3209 19.6162C18.044 19.3796 18.5331 18.6995 18.5304 17.9306L18.5251 14.4197C18.5251 12.4142 20.4577 10.9921 22.3451 11.6131L25.644 12.7018C26.3644 12.9411 27.1566 12.6803 27.6032 12.0593L29.6394 9.2178C30.8038 7.59407 33.1962 7.59407 34.3606 9.2178Z" fill="white"/>
<path d="M30.2827 36.5416C29.6367 36.5416 28.9908 36.2916 28.4963 35.7942L24.4052 31.6569C23.419 30.6595 23.419 29.0412 24.4052 28.0438C25.3914 27.0465 26.9917 27.0465 27.9753 28.0438L30.28 30.3746L36.0219 24.5678C37.0082 23.5705 38.6085 23.5705 39.5947 24.5678C40.5809 25.5652 40.5809 27.1836 39.5947 28.1809L32.0664 35.7942C31.5746 36.2916 30.926 36.5416 30.28 36.5416H30.2827Z" fill="#A7A8E3"/>
</g>
</g>
<defs>
<filter id="filter0_d_2033_5360" x="4" y="4" width="56" height="64" filterUnits="userSpaceOnUse" color-interpolation-filters="sRGB">
<feFlood flood-opacity="0" result="BackgroundImageFix"/>
<feColorMatrix in="SourceAlpha" type="matrix" values="0 0 0 0 0 0 0 0 0 0 0 0 0 0 0 0 0 0 127 0" result="hardAlpha"/>
<feOffset dy="4"/>
<feGaussianBlur stdDeviation="4"/>
<feComposite in2="hardAlpha" operator="out"/>
<feColorMatrix type="matrix" values="0 0 0 0 0 0 0 0 0 0 0 0 0 0 0 0 0 0 0.08 0"/>
<feBlend mode="normal" in2="BackgroundImageFix" result="effect1_dropShadow_2033_5360"/>
<feBlend mode="normal" in="SourceGraphic" in2="effect1_dropShadow_2033_5360" result="shape"/>
</filter>
<clipPath id="clip0_2033_5360">
<rect width="64" height="64" fill="white"/>
</clipPath>
</defs>
</svg>
