<svg preserveAspectRatio="none" width="100%" height="100%" overflow="visible" style="display: block;" viewBox="0 0 64 64" fill="none" xmlns="http://www.w3.org/2000/svg">
<g id="Group 1">
<path id="Vector" d="M21.7041 37.6067V28.1692C21.7041 27.3444 21.0223 26.6624 20.1661 26.6624L11.5879 26.5989C10.7475 26.5989 10.0498 27.2651 10.0498 28.1058C10.0498 28.9464 10.7475 29.6126 11.5879 29.6126L18.628 29.676V37.6067C18.628 38.4473 19.3098 39.1135 20.1661 39.1135C21.0223 39.1135 21.7041 38.4473 21.7041 37.6067ZM32.6607 26.5514C32.6607 25.7107 31.9789 25.0287 31.1227 25.0287H27.8563V20.1593C27.8563 19.3186 27.1745 18.6366 26.3182 18.6366C25.462 18.6366 24.7802 19.3186 24.7802 20.1593V26.6148V34.6882C24.7802 35.513 25.462 36.195 26.3182 36.195C27.1745 36.195 27.8563 35.5288 27.8563 34.6882V28.0582H31.1227C31.963 28.0582 32.6607 27.392 32.6607 26.5514Z" fill="var(--fill-0, #EA502C)"/>
<path id="Vector_2" d="M35.0234 37.4011C35.0234 38.1942 35.6735 38.8286 36.4663 38.8286H43.2845V44.0787C43.2845 44.8559 43.9346 45.5062 44.7432 45.5062C45.5519 45.5062 46.1861 44.8559 46.1861 44.0787V37.3853C46.1861 36.5922 45.536 35.9578 44.7432 35.9578H36.4822C35.6894 35.9578 35.0393 36.5922 35.0393 37.3853L35.0234 37.4011ZM46.9631 19.24C46.9631 18.431 46.2971 17.7649 45.4726 17.7649H35.9906C35.1661 17.7649 34.5001 18.4152 34.5001 19.24C34.5001 20.0648 35.1661 20.6992 35.9906 20.6992H39.6851C39.6851 20.6992 39.6217 20.7468 39.59 20.7627L34.9124 25.2038C34.3257 25.7907 34.3257 26.7106 34.9124 27.2816C35.4991 27.8526 36.4346 27.8526 37.0054 27.2816L40.6365 23.8556L44.2517 27.2975C44.8384 27.8685 45.7739 27.8685 46.3605 27.2975C46.9314 26.7265 46.9314 25.7907 46.3605 25.2197L41.683 20.7785C41.683 20.7785 41.6196 20.7309 41.6037 20.7151H45.4726C46.2971 20.7151 46.9631 20.0648 46.9631 19.2558V19.24ZM47.5815 32.6428C47.5815 31.8338 46.9155 31.1677 46.091 31.1677H42.1111V28.4078C42.1111 27.5989 41.4451 26.9486 40.6206 26.9486C39.7961 26.9486 39.1301 27.5989 39.1301 28.4078V31.1677H35.1027C34.294 31.1677 33.6281 31.8338 33.6122 32.6428C33.6122 33.4517 34.2782 34.102 35.1027 34.102H40.6206H46.091C46.9155 34.102 47.5815 33.4517 47.5815 32.6428Z" fill="var(--fill-0, #F3991E)"/>
<path id="Vector_3" d="M36.4503 59.369V55.6575H40.7474C41.5877 55.6575 42.2537 54.9913 42.2537 54.1824C42.2537 53.3735 41.5877 52.7073 40.7474 52.7073H36.4503V48.964H41.0328C41.8732 48.964 42.555 48.2978 42.555 47.4731C42.555 46.6483 41.7622 45.998 41.0328 45.998H34.9599C34.1354 45.998 33.4535 46.6641 33.4535 47.4731V60.8441C33.4535 61.653 34.1195 62.3351 34.9599 62.3351H41.0328C41.8732 62.3351 42.555 61.6689 42.555 60.8441C42.555 60.0193 41.8732 59.369 41.0328 59.369H36.4503ZM50.3879 52.279V45.76C50.3879 44.9353 49.7061 44.2691 48.8816 44.2691C48.057 44.2691 47.3752 44.9353 47.3752 45.76V49.9633H44.648C43.8235 49.9633 43.1416 50.6136 43.1416 51.4384C43.1416 52.2632 43.8076 52.9293 44.648 52.9293H47.3752V58.8932C47.3752 59.7021 48.057 60.3841 48.8816 60.3841C49.7061 60.3841 50.3879 59.718 50.3879 58.8932V52.2949V52.279Z" fill="var(--fill-0, #725AA4)"/>
<path id="Vector_4" d="M21.3551 56.9576V62.5725C21.3551 63.3656 22.0052 64 22.798 64H29.1563C29.9492 64 30.5993 63.3656 30.5993 62.5883C30.5993 61.8111 29.9492 61.145 29.1563 61.145H24.2568V56.9576C24.2568 56.1645 23.6067 55.5301 22.8139 55.5301C22.0211 55.5301 21.371 56.1645 21.371 56.9576H21.3551ZM19.0084 50.1848L15.9165 45.6802L15.5359 45.1092C15.2505 44.681 14.7748 44.4589 14.2674 44.4589C13.76 44.4589 13.3161 44.681 13.0306 45.1092L12.6501 45.6802L9.57401 50.1848L8.36894 51.9613C7.90911 52.6433 8.09938 53.5633 8.79706 54.0391C9.47887 54.4991 10.4144 54.3405 10.8742 53.6426L13.6807 49.4711L14.2516 48.6146L14.8541 49.4711L17.6606 53.6426C18.1205 54.3246 19.056 54.4991 19.7378 54.0391C20.4355 53.5633 20.6257 52.6433 20.1659 51.9613L18.9608 50.1848H19.0084ZM25.6997 46.4416V42.0004C25.6997 41.2232 25.0496 40.5729 24.2568 40.5729C23.464 40.5729 22.8139 41.2232 22.8139 42.0004V45.3471H20.3879C19.5951 45.3471 18.945 45.9816 18.945 46.7747C18.945 47.5677 19.5951 48.2022 20.3879 48.2022H22.8139V51.8503C22.8139 52.6433 23.464 53.2778 24.2568 53.2778C25.0496 53.2778 25.6997 52.6433 25.6997 51.8503V46.4574V46.4416ZM30.4883 50.0897V40.3191C30.4883 39.5261 29.8382 38.8916 29.0295 38.8916C28.2208 38.8916 27.5866 39.5261 27.5866 40.3191V50.0897C27.5866 50.8827 28.2367 51.5172 29.0295 51.5172C29.8223 51.5172 30.4883 50.8827 30.4883 50.0897Z" fill="var(--fill-0, #11B5B9)"/>
<path id="Vector_5" d="M62.3276 29.5971C61.9312 29.5971 61.5348 29.4703 61.2177 29.1848L32.2168 3.60051C32.1216 3.5212 32.0265 3.48948 31.9314 3.48948C31.8362 3.48948 31.7728 3.5212 31.6618 3.60051L2.78776 29.1372C2.09009 29.7399 1.04358 29.6765 0.425194 28.9944C-0.193196 28.3124 -0.129771 27.2497 0.567899 26.6311L29.5688 1.03098C30.5043 0.206197 31.1544 0 31.9631 0C32.7876 0.0158613 33.5963 0.333087 34.3891 1.03098L63.4375 26.6787C64.1193 27.2814 64.1986 28.3441 63.5802 29.042C63.2473 29.4227 62.7874 29.5971 62.3276 29.5971Z" fill="var(--fill-0, #747478)"/>
</g>
</svg>
