<svg width="24" height="24" viewBox="0 0 24 24" fill="none" xmlns="http://www.w3.org/2000/svg">
<path d="M8.9233 9.19231C11.0475 9.19231 12.7695 7.47032 12.7695 5.34615C12.7695 3.22198 11.0475 1.5 8.9233 1.5C6.79913 1.5 5.07715 3.22198 5.07715 5.34615C5.07715 7.47032 6.79913 9.19231 8.9233 9.19231Z" stroke="#747478" stroke-width="2" stroke-linecap="round" stroke-linejoin="round"/>
<path d="M8.92308 19.9612H2V19.1272C2.01225 17.9546 2.3215 16.8042 2.89888 15.7835C3.47626 14.7628 4.30292 13.9051 5.30165 13.2905C6.30038 12.6759 7.4386 12.3244 8.60997 12.269C8.7144 12.264 8.8188 12.2614 8.92308 12.2612C9.02735 12.2614 9.13177 12.264 9.2362 12.269C10.4076 12.3244 11.5458 12.6759 12.5445 13.2905C13.1188 13.6439 13.6362 14.0777 14.0821 14.5767" stroke="#747478" stroke-width="2" stroke-linecap="round" stroke-linejoin="round"/>
<path d="M22.0003 13.8081L15.8465 21.5004L12.7695 19.1927" stroke="#747478" stroke-width="2" stroke-linecap="round" stroke-linejoin="round"/>
</svg>
