<svg preserveAspectRatio="none" width="100%" height="100%" overflow="visible" style="display: block;" viewBox="0 0 14.999 15.833" fill="none" xmlns="http://www.w3.org/2000/svg">
<path id="Vector" d="M0.953125 9.46387C5.04549 6.78432 10.356 6.86197 14.3682 9.66016C14.7636 9.93595 14.999 10.388 14.999 10.8701V14.333C14.999 15.1614 14.3274 15.833 13.499 15.833H1.5C0.671609 15.833 5.68654e-05 15.1614 0 14.333V10.8984C9.01998e-05 10.3926 0.255537 9.92066 0.678711 9.64355L0.953125 9.46387ZM13.6055 10.7539C10.0399 8.26715 5.32048 8.19789 1.68359 10.5791L1.40918 10.7588C1.36223 10.7895 1.3331 10.8423 1.33301 10.8984V14.333C1.33306 14.425 1.40799 14.5 1.5 14.5H13.499C13.591 14.5 13.666 14.425 13.666 14.333V10.8701C13.666 10.8239 13.6434 10.7803 13.6055 10.7539ZM7.5 0C9.34095 0 10.833 1.49206 10.833 3.33301C10.833 5.17396 9.34095 6.66602 7.5 6.66602C5.65905 6.66602 4.16699 5.17396 4.16699 3.33301C4.16699 1.49206 5.65905 1.28864e-07 7.5 0ZM7.5 1.33301C6.39543 1.33301 5.5 2.22844 5.5 3.33301C5.5 4.43758 6.39543 5.33301 7.5 5.33301C8.60457 5.33301 9.5 4.43758 9.5 3.33301C9.5 2.22844 8.60457 1.33301 7.5 1.33301Z" fill="var(--fill-0, #111111)"/>
</svg>
