<svg width="64" height="64" viewBox="0 0 64 64" fill="none" xmlns="http://www.w3.org/2000/svg">
<path d="M21.7041 37.6068V28.1693C21.7041 27.3446 21.0223 26.6625 20.166 26.6625L11.5879 26.5991C10.7475 26.5991 10.0498 27.2653 10.0498 28.1059C10.0498 28.9465 10.7475 29.6127 11.5879 29.6127L18.628 29.6762V37.6068C18.628 38.4475 19.3098 39.1136 20.166 39.1136C21.0223 39.1136 21.7041 38.4475 21.7041 37.6068ZM32.6607 26.5515C32.6607 25.7108 31.9789 25.0288 31.1226 25.0288H27.8563V20.1594C27.8563 19.3188 27.1744 18.6367 26.3182 18.6367C25.462 18.6367 24.7802 19.3188 24.7802 20.1594V26.6149V34.6883C24.7802 35.5131 25.462 36.1952 26.3182 36.1952C27.1744 36.1952 27.8563 35.529 27.8563 34.6883V28.0583H31.1226C31.963 28.0583 32.6607 27.3921 32.6607 26.5515Z" fill="#EA502C"/>
<path d="M35.0235 37.4009C35.0235 38.194 35.6736 38.8284 36.4664 38.8284H43.2846V44.0785C43.2846 44.8557 43.9347 45.506 44.7433 45.506C45.552 45.506 46.1862 44.8557 46.1862 44.0785V37.385C46.1862 36.592 45.5361 35.9575 44.7433 35.9575H36.4823C35.6895 35.9575 35.0394 36.592 35.0394 37.385L35.0235 37.4009ZM46.9632 19.2397C46.9632 18.4308 46.2972 17.7646 45.4727 17.7646H35.9907C35.1662 17.7646 34.5002 18.415 34.5002 19.2397C34.5002 20.0645 35.1662 20.699 35.9907 20.699H39.6852C39.6852 20.699 39.6218 20.7466 39.5901 20.7624L34.9125 25.2036C34.3258 25.7905 34.3258 26.7104 34.9125 27.2814C35.4992 27.8524 36.4347 27.8524 37.0055 27.2814L40.6366 23.8554L44.2518 27.2973C44.8385 27.8683 45.774 27.8683 46.3606 27.2973C46.9315 26.7263 46.9315 25.7905 46.3606 25.2194L41.6831 20.7783C41.6831 20.7783 41.6197 20.7307 41.6038 20.7148H45.4727C46.2972 20.7148 46.9632 20.0645 46.9632 19.2556V19.2397ZM47.5816 32.6425C47.5816 31.8336 46.9156 31.1674 46.0911 31.1674H42.1112V28.4076C42.1112 27.5986 41.4452 26.9483 40.6207 26.9483C39.7962 26.9483 39.1302 27.5986 39.1302 28.4076V31.1674H35.1028C34.2941 31.1674 33.6282 31.8336 33.6123 32.6425C33.6123 33.4515 34.2783 34.1018 35.1028 34.1018H40.6207H46.0911C46.9156 34.1018 47.5816 33.4515 47.5816 32.6425Z" fill="#F3991E"/>
<path d="M36.4504 59.369V55.6574H40.7474C41.5878 55.6574 42.2538 54.9913 42.2538 54.1823C42.2538 53.3734 41.5878 52.7072 40.7474 52.7072H36.4504V48.964H41.0329C41.8732 48.964 42.555 48.2978 42.555 47.473C42.555 46.6482 41.7622 45.9979 41.0329 45.9979H34.9599C34.1354 45.9979 33.4536 46.6641 33.4536 47.473V60.8441C33.4536 61.653 34.1196 62.335 34.9599 62.335H41.0329C41.8732 62.335 42.555 61.6689 42.555 60.8441C42.555 60.0193 41.8732 59.369 41.0329 59.369H36.4504ZM50.388 52.279V45.76C50.388 44.9352 49.7062 44.269 48.8816 44.269C48.0571 44.269 47.3753 44.9352 47.3753 45.76V49.9632H44.6481C43.8235 49.9632 43.1417 50.6136 43.1417 51.4383C43.1417 52.2631 43.8077 52.9293 44.6481 52.9293H47.3753V58.8931C47.3753 59.7021 48.0571 60.3841 48.8816 60.3841C49.7062 60.3841 50.388 59.7179 50.388 58.8931V52.2949V52.279Z" fill="#725AA4"/>
<path d="M21.355 56.9576V62.5725C21.355 63.3656 22.0051 64 22.7979 64H29.1562C29.949 64 30.5991 63.3656 30.5991 62.5883C30.5991 61.8111 29.949 61.145 29.1562 61.145H24.2567V56.9576C24.2567 56.1645 23.6066 55.5301 22.8138 55.5301C22.021 55.5301 21.3708 56.1645 21.3708 56.9576H21.355ZM19.0083 50.1848L15.9163 45.6802L15.5358 45.1092C15.2504 44.681 14.7747 44.4589 14.2673 44.4589C13.7599 44.4589 13.3159 44.681 13.0305 45.1092L12.65 45.6802L9.57388 50.1848L8.36881 51.9613C7.90898 52.6433 8.09925 53.5633 8.79692 54.0391C9.47874 54.4991 10.4143 54.3405 10.8741 53.6426L13.6806 49.4711L14.2514 48.6146L14.854 49.4711L17.6605 53.6426C18.1203 54.3246 19.0559 54.4991 19.7377 54.0391C20.4353 53.5633 20.6256 52.6433 20.1658 51.9613L18.9607 50.1848H19.0083ZM25.6996 46.4416V42.0004C25.6996 41.2232 25.0495 40.5729 24.2567 40.5729C23.4639 40.5729 22.8138 41.2232 22.8138 42.0004V45.3471H20.3878C19.595 45.3471 18.9449 45.9816 18.9449 46.7747C18.9449 47.5677 19.595 48.2022 20.3878 48.2022H22.8138V51.8503C22.8138 52.6433 23.4639 53.2778 24.2567 53.2778C25.0495 53.2778 25.6996 52.6433 25.6996 51.8503V46.4574V46.4416ZM30.4881 50.0897V40.3191C30.4881 39.5261 29.838 38.8916 29.0294 38.8916C28.2207 38.8916 27.5865 39.5261 27.5865 40.3191V50.0897C27.5865 50.8827 28.2366 51.5172 29.0294 51.5172C29.8222 51.5172 30.4881 50.8827 30.4881 50.0897Z" fill="#11B5B9"/>
<path d="M62.3276 29.5971C61.9312 29.5971 61.5348 29.4703 61.2177 29.1848L32.2168 3.60051C32.1216 3.5212 32.0265 3.48948 31.9314 3.48948C31.8362 3.48948 31.7728 3.5212 31.6618 3.60051L2.78776 29.1372C2.09009 29.7399 1.04358 29.6765 0.425194 28.9944C-0.193196 28.3124 -0.129771 27.2497 0.567899 26.6311L29.5688 1.03098C30.5043 0.206197 31.1544 0 31.9631 0C32.7876 0.0158613 33.5963 0.333087 34.3891 1.03098L63.4375 26.6787C64.1193 27.2814 64.1986 28.3441 63.5802 29.042C63.2472 29.4227 62.7874 29.5971 62.3276 29.5971Z" fill="#7E7E7E"/>
</svg>
