<svg preserveAspectRatio="none" width="100%" height="100%" overflow="visible" style="display: block;" viewBox="0 0 16 14" fill="none" xmlns="http://www.w3.org/2000/svg">
<g id="home-4--home-house-roof-shelter">
<g id="Vector">
<mask id="path-1-inside-1_2622_14589" fill="white">
<path d="M0 8.27272L8 0L16 8.27272"/>
</mask>
<path d="M-0.89857 7.40377C-1.37848 7.90004 -1.36522 8.69138 -0.868948 9.17129C-0.372681 9.6512 0.418664 9.63793 0.89857 9.14167L0 8.27272L-0.89857 7.40377ZM8 0L8.89857 -0.868948C8.66306 -1.11249 8.33879 -1.25 8 -1.25C7.66121 -1.25 7.33694 -1.11249 7.10143 -0.868948L8 0ZM15.1014 9.14167C15.5813 9.63793 16.3727 9.6512 16.8689 9.17129C17.3652 8.69138 17.3785 7.90004 16.8986 7.40377L16 8.27272L15.1014 9.14167ZM0 8.27272L0.89857 9.14167L8.89857 0.868948L8 0L7.10143 -0.868948L-0.89857 7.40377L0 8.27272ZM8 0L7.10143 0.868948L15.1014 9.14167L16 8.27272L16.8986 7.40377L8.89857 -0.868948L8 0Z" fill="var(--stroke-0, #111111)" mask="url(#path-1-inside-1_2622_14589)"/>
</g>
<g id="Vector_2">
<mask id="path-3-inside-2_2622_14589" fill="white">
<path d="M2.46155 5.72728V14H13.5385V5.72728"/>
</mask>
<path d="M3.71155 5.72728C3.71155 5.03693 3.1519 4.47728 2.46155 4.47728C1.77119 4.47728 1.21155 5.03693 1.21155 5.72728H2.46155H3.71155ZM2.46155 14H1.21155C1.21155 14.6904 1.77119 15.25 2.46155 15.25L2.46155 14ZM13.5385 14V15.25C14.2288 15.25 14.7885 14.6904 14.7885 14H13.5385ZM14.7885 5.72728C14.7885 5.03693 14.2288 4.47728 13.5385 4.47728C12.8481 4.47728 12.2885 5.03693 12.2885 5.72728H13.5385H14.7885ZM2.46155 5.72728H1.21155V14H2.46155H3.71155V5.72728H2.46155ZM2.46155 14V15.25H13.5385V14V12.75H2.46155V14ZM13.5385 14H14.7885V5.72728H13.5385H12.2885V14H13.5385Z" fill="var(--stroke-0, #111111)" mask="url(#path-3-inside-2_2622_14589)"/>
</g>
</g>
</svg>
