<svg preserveAspectRatio="none" width="100%" height="100%" overflow="visible" style="display: block;" viewBox="0 0 22.0001 22.0003" fill="none" xmlns="http://www.w3.org/2000/svg">
<g id="user-check-validate--actions-close-checkmark-check-geometric-human-person-single-success-up-user">
<path id="Vector" d="M7.92341 8.69231C10.0476 8.69231 11.7696 6.97032 11.7696 4.84615C11.7696 2.72198 10.0476 1 7.92341 1C5.79924 1 4.07726 2.72198 4.07726 4.84615C4.07726 6.97032 5.79924 8.69231 7.92341 8.69231Z" stroke="var(--stroke-0, #747478)" stroke-width="2" stroke-linecap="round" stroke-linejoin="round"/>
<path id="Vector_2" d="M7.92308 19.4612H1V18.6272C1.01225 17.4546 1.3215 16.3041 1.89888 15.2834C2.47626 14.2627 3.30292 13.405 4.30165 12.7904C5.30038 12.1758 6.4386 11.8244 7.60997 11.7689C7.7144 11.764 7.8188 11.7614 7.92308 11.7612C8.02735 11.7614 8.13177 11.764 8.2362 11.7689C9.40757 11.8244 10.5458 12.1758 11.5445 12.7904C12.1188 13.1438 12.6362 13.5776 13.0821 14.0766" stroke="var(--stroke-0, #747478)" stroke-width="2" stroke-linecap="round" stroke-linejoin="round"/>
<path id="Vector_3" d="M21.0001 13.3079L14.8462 21.0002L11.7693 18.6926" stroke="var(--stroke-0, #747478)" stroke-width="2" stroke-linecap="round" stroke-linejoin="round"/>
</g>
</svg>
