<svg width="24" height="24" viewBox="0 0 24 24" fill="none" xmlns="http://www.w3.org/2000/svg">
<g clip-path="url(#clip0_2342_7762)">
<path d="M17.8287 8.54932H5.02871C4.14506 8.54932 3.42871 9.23812 3.42871 10.0878V19.3185C3.42871 20.1682 4.14506 20.857 5.02871 20.857H17.8287C18.7124 20.857 19.4287 20.1682 19.4287 19.3185V10.0878C19.4287 9.23812 18.7124 8.54932 17.8287 8.54932Z" stroke="#747478" stroke-width="2" stroke-linecap="round" stroke-linejoin="round"/>
<path d="M17.0286 8.54924V6.24155C17.0286 4.81346 16.4387 3.44386 15.3884 2.43406C14.3382 1.42424 12.9138 0.856934 11.4286 0.856934C9.9434 0.856934 8.51901 1.42424 7.46882 2.43406C6.41861 3.44386 5.82861 4.81346 5.82861 6.24155V8.54924" stroke="#747478" stroke-width="2" stroke-linecap="round" stroke-linejoin="round"/>
<path d="M11.4289 15.4721C11.8707 15.4721 12.2289 15.1277 12.2289 14.7028C12.2289 14.278 11.8707 13.9336 11.4289 13.9336C10.9871 13.9336 10.6289 14.278 10.6289 14.7028C10.6289 15.1277 10.9871 15.4721 11.4289 15.4721Z" stroke="#747478" stroke-width="2" stroke-linecap="round" stroke-linejoin="round"/>
</g>
<defs>
<clipPath id="clip0_2342_7762">
<rect width="24" height="24" fill="white"/>
</clipPath>
</defs>
</svg>
