<svg width="20" height="20" viewBox="0 0 20 20" fill="none" xmlns="http://www.w3.org/2000/svg">
<mask id="path-1-inside-1_2453_8410" fill="white">
<path d="M2 11.2727L10 3L18 11.2727"/>
</mask>
<path d="M1.10143 10.4038C0.621523 10.9 0.634785 11.6914 1.13105 12.1713C1.62732 12.6512 2.41866 12.6379 2.89857 12.1417L2 11.2727L1.10143 10.4038ZM10 3L10.8986 2.13105C10.6631 1.88751 10.3388 1.75 10 1.75C9.66121 1.75 9.33694 1.88751 9.10143 2.13105L10 3ZM17.1014 12.1417C17.5813 12.6379 18.3727 12.6512 18.8689 12.1713C19.3652 11.6914 19.3785 10.9 18.8986 10.4038L18 11.2727L17.1014 12.1417ZM2 11.2727L2.89857 12.1417L10.8986 3.86895L10 3L9.10143 2.13105L1.10143 10.4038L2 11.2727ZM10 3L9.10143 3.86895L17.1014 12.1417L18 11.2727L18.8986 10.4038L10.8986 2.13105L10 3Z" fill="#111111" mask="url(#path-1-inside-1_2453_8410)"/>
<mask id="path-3-inside-2_2453_8410" fill="white">
<path d="M4.46191 8.72656V16.9993H15.5388V8.72656"/>
</mask>
<path d="M5.71191 8.72656C5.71191 8.03621 5.15227 7.47656 4.46191 7.47656C3.77156 7.47656 3.21191 8.03621 3.21191 8.72656H4.46191H5.71191ZM4.46191 16.9993H3.21191C3.21191 17.6896 3.77156 18.2493 4.46191 18.2493V16.9993ZM15.5388 16.9993V18.2493C16.2292 18.2493 16.7888 17.6896 16.7888 16.9993H15.5388ZM16.7888 8.72656C16.7888 8.03621 16.2292 7.47656 15.5388 7.47656C14.8485 7.47656 14.2888 8.03621 14.2888 8.72656H15.5388H16.7888ZM4.46191 8.72656H3.21191V16.9993H4.46191H5.71191V8.72656H4.46191ZM4.46191 16.9993V18.2493H15.5388V16.9993V15.7493H4.46191V16.9993ZM15.5388 16.9993H16.7888V8.72656H15.5388H14.2888V16.9993H15.5388Z" fill="#111111" mask="url(#path-3-inside-2_2453_8410)"/>
</svg>
