<svg width="20" height="20" viewBox="0 0 20 20" fill="none" xmlns="http://www.w3.org/2000/svg">
<g clip-path="url(#clip0_2345_7115)">
<path d="M11.4214 16.4174C10.3634 17.4754 9.09274 17.9972 7.60941 17.9827C6.1262 17.9683 4.85111 17.4277 3.78418 16.3608C2.71738 15.294 2.17509 14.0172 2.15727 12.5306C2.13949 11.0439 2.65959 9.77157 3.71757 8.71358L9.57248 2.85867C10.3172 2.11395 11.2174 1.74816 12.273 1.76118C13.3286 1.77424 14.23 2.15427 14.977 2.90131C15.724 3.64835 16.1041 4.54971 16.1171 5.60532C16.1302 6.66096 15.7644 7.56111 15.0196 8.30582L9.47288 13.8526C9.04146 14.284 8.51605 14.4982 7.89663 14.495C7.27721 14.4919 6.74703 14.2699 6.30606 13.8289C5.86512 13.388 5.64137 12.8595 5.63486 12.2434C5.62845 11.6273 5.8443 11.1002 6.2824 10.6621L11.521 5.4235C11.652 5.29254 11.8068 5.22778 11.9855 5.22917C12.164 5.2306 12.3198 5.29787 12.4529 5.43097C12.586 5.56401 12.6523 5.71888 12.6519 5.89559C12.6515 6.07246 12.5858 6.22633 12.4548 6.3573L7.2162 11.5959C7.04157 11.7705 6.95495 11.9869 6.95622 12.245C6.95751 12.5031 7.05229 12.7262 7.24048 12.9144C7.4287 13.1027 7.64852 13.1941 7.89997 13.1887C8.15146 13.1834 8.36445 13.0934 8.53908 12.9188L14.0858 7.37203C14.5789 6.87898 14.8211 6.28919 14.8125 5.60263C14.8039 4.91611 14.5495 4.32271 14.0493 3.8225C13.5491 3.3223 12.9565 3.0693 12.2715 3.06347C11.5865 3.05768 10.9981 3.30065 10.5063 3.79247L4.65137 9.64738C3.85017 10.4486 3.45741 11.4117 3.47307 12.5367C3.48876 13.6617 3.90153 14.6292 4.71144 15.4391C5.51992 16.2476 6.48441 16.6574 7.60497 16.6686C8.72553 16.6798 9.68641 16.2848 10.4876 15.4836L16.0344 9.93686C16.1653 9.80589 16.3202 9.74114 16.4989 9.74253C16.6774 9.74395 16.8332 9.81123 16.9663 9.94433C17.0993 10.0774 17.1656 10.2322 17.1653 10.409C17.1648 10.5858 17.0991 10.7397 16.9682 10.8707L11.4214 16.4174Z" fill="#333333" stroke="#333333" stroke-width="0.25"/>
</g>
<defs>
<clipPath id="clip0_2345_7115">
<rect width="20" height="20" fill="white"/>
</clipPath>
</defs>
</svg>
