<svg width="20" height="20" viewBox="0 0 20 20" fill="none" xmlns="http://www.w3.org/2000/svg">
<path d="M3.45312 11.1318C7.54549 8.45229 12.856 8.52994 16.8682 11.3281C17.2636 11.6039 17.499 12.056 17.499 12.5381V16.001C17.499 16.8294 16.8274 17.501 15.999 17.501H4C3.17161 17.501 2.50006 16.8294 2.5 16.001V12.5664C2.50009 12.0606 2.75554 11.5886 3.17871 11.3115L3.45312 11.1318ZM16.1055 12.4219C12.5399 9.93512 7.82048 9.86586 4.18359 12.2471L3.90918 12.4268C3.86223 12.4575 3.8331 12.5103 3.83301 12.5664V16.001C3.83306 16.093 3.90799 16.168 4 16.168H15.999C16.091 16.168 16.166 16.093 16.166 16.001V12.5381C16.166 12.4919 16.1434 12.4483 16.1055 12.4219ZM10 1.66797C11.8409 1.66797 13.333 3.16003 13.333 5.00098C13.333 6.84193 11.8409 8.33398 10 8.33398C8.15905 8.33398 6.66699 6.84193 6.66699 5.00098C6.66699 3.16003 8.15905 1.66797 10 1.66797ZM10 3.00098C8.89543 3.00098 8 3.89641 8 5.00098C8 6.10555 8.89543 7.00098 10 7.00098C11.1046 7.00098 12 6.10555 12 5.00098C12 3.89641 11.1046 3.00098 10 3.00098Z" fill="#111111"/>
</svg>
