<svg width="20" height="20" viewBox="0 0 20 20" fill="none" xmlns="http://www.w3.org/2000/svg">
<mask id="path-1-inside-1_2345_6067" fill="white">
<path d="M3.30371 15.7002H16.7041V13.5H18.3037V16.5C18.3037 16.9418 17.9457 17.2998 17.5039 17.2998H2.50391C2.06208 17.2998 1.7041 16.9418 1.7041 16.5V13.5H3.30371V15.7002ZM10.8047 2.1582V11.0068L13.8701 7.94043L15.002 9.07227L10.0039 14.0693L5.00781 9.07227L6.13965 7.94043L9.2041 11.0059V2.15723H10.0039L10.8047 2.1582Z"/>
</mask>
<path d="M3.30371 15.7002H16.7041V13.5H18.3037V16.5C18.3037 16.9418 17.9457 17.2998 17.5039 17.2998H2.50391C2.06208 17.2998 1.7041 16.9418 1.7041 16.5V13.5H3.30371V15.7002ZM10.8047 2.1582V11.0068L13.8701 7.94043L15.002 9.07227L10.0039 14.0693L5.00781 9.07227L6.13965 7.94043L9.2041 11.0059V2.15723H10.0039L10.8047 2.1582Z" fill="#333333"/>
<path d="M3.30371 15.7002H2.30371V16.7002H3.30371V15.7002ZM16.7041 15.7002V16.7002H17.7041V15.7002H16.7041ZM16.7041 13.5V12.5H15.7041V13.5H16.7041ZM18.3037 13.5H19.3037V12.5H18.3037V13.5ZM1.7041 13.5V12.5H0.704102V13.5H1.7041ZM3.30371 13.5H4.30371V12.5H3.30371V13.5ZM10.8047 2.1582H11.8047V1.15942L10.8059 1.1582L10.8047 2.1582ZM10.8047 11.0068H9.80469V13.4216L11.5119 11.7138L10.8047 11.0068ZM13.8701 7.94043L14.5772 7.23332L13.87 6.5261L13.1629 7.23344L13.8701 7.94043ZM15.002 9.07227L15.709 9.77944L16.4162 9.07233L15.7091 8.36516L15.002 9.07227ZM10.0039 14.0693L9.29673 14.7764L10.0038 15.4835L10.7109 14.7765L10.0039 14.0693ZM5.00781 9.07227L4.30071 8.36516L3.59367 9.0722L4.30064 9.7793L5.00781 9.07227ZM6.13965 7.94043L6.84687 7.23344L6.13976 6.5261L5.43254 7.23332L6.13965 7.94043ZM9.2041 11.0059L8.49688 11.7129L10.2041 13.4206V11.0059H9.2041ZM9.2041 2.15723V1.15723H8.2041V2.15723H9.2041ZM10.0039 2.15723L10.0051 1.15723H10.0039V2.15723ZM3.30371 15.7002V16.7002H16.7041V15.7002V14.7002H3.30371V15.7002ZM16.7041 15.7002H17.7041V13.5H16.7041H15.7041V15.7002H16.7041ZM16.7041 13.5V14.5H18.3037V13.5V12.5H16.7041V13.5ZM18.3037 13.5H17.3037V16.5H18.3037H19.3037V13.5H18.3037ZM18.3037 16.5H17.3037C17.3037 16.3895 17.3934 16.2998 17.5039 16.2998V17.2998V18.2998C18.498 18.2998 19.3037 17.4941 19.3037 16.5H18.3037ZM17.5039 17.2998V16.2998H2.50391V17.2998V18.2998H17.5039V17.2998ZM2.50391 17.2998V16.2998C2.61436 16.2998 2.7041 16.3895 2.7041 16.5H1.7041H0.704102C0.704102 17.4941 1.50979 18.2998 2.50391 18.2998V17.2998ZM1.7041 16.5H2.7041V13.5H1.7041H0.704102V16.5H1.7041ZM1.7041 13.5V14.5H3.30371V13.5V12.5H1.7041V13.5ZM3.30371 13.5H2.30371V15.7002H3.30371H4.30371V13.5H3.30371ZM10.8047 2.1582H9.80469V11.0068H10.8047H11.8047V2.1582H10.8047ZM10.8047 11.0068L11.5119 11.7138L14.5773 8.64742L13.8701 7.94043L13.1629 7.23344L10.0975 10.2998L10.8047 11.0068ZM13.8701 7.94043L13.163 8.64754L14.2948 9.77937L15.002 9.07227L15.7091 8.36516L14.5772 7.23332L13.8701 7.94043ZM15.002 9.07227L14.2949 8.36509L9.29687 13.3622L10.0039 14.0693L10.7109 14.7765L15.709 9.77944L15.002 9.07227ZM10.0039 14.0693L10.7111 13.3623L5.71499 8.36523L5.00781 9.07227L4.30064 9.7793L9.29673 14.7764L10.0039 14.0693ZM5.00781 9.07227L5.71492 9.77937L6.84676 8.64754L6.13965 7.94043L5.43254 7.23332L4.30071 8.36516L5.00781 9.07227ZM6.13965 7.94043L5.43243 8.64742L8.49688 11.7129L9.2041 11.0059L9.91132 10.2989L6.84687 7.23344L6.13965 7.94043ZM9.2041 11.0059H10.2041V2.15723H9.2041H8.2041V11.0059H9.2041ZM9.2041 2.15723V3.15723H10.0039V2.15723V1.15723H9.2041V2.15723ZM10.0039 2.15723L10.0027 3.15723L10.8035 3.1582L10.8047 2.1582L10.8059 1.1582L10.0051 1.15723L10.0039 2.15723Z" fill="#333333" mask="url(#path-1-inside-1_2345_6067)"/>
</svg>
