<svg width="183" height="64" viewBox="0 0 183 64" fill="none" xmlns="http://www.w3.org/2000/svg">
<path d="M21.7041 37.6067V28.1692C21.7041 27.3444 21.0223 26.6624 20.166 26.6624L11.5879 26.5989C10.7475 26.5989 10.0498 27.2651 10.0498 28.1058C10.0498 28.9464 10.7475 29.6126 11.5879 29.6126L18.628 29.676V37.6067C18.628 38.4473 19.3098 39.1135 20.166 39.1135C21.0223 39.1135 21.7041 38.4473 21.7041 37.6067ZM32.6607 26.5514C32.6607 25.7107 31.9789 25.0287 31.1226 25.0287H27.8563V20.1593C27.8563 19.3186 27.1744 18.6366 26.3182 18.6366C25.462 18.6366 24.7802 19.3186 24.7802 20.1593V26.6148V34.6882C24.7802 35.513 25.462 36.195 26.3182 36.195C27.1744 36.195 27.8563 35.5288 27.8563 34.6882V28.0582H31.1226C31.963 28.0582 32.6607 27.392 32.6607 26.5514Z" fill="#EA502C"/>
<path d="M35.0235 37.4011C35.0235 38.1942 35.6736 38.8287 36.4664 38.8287H43.2846V44.0787C43.2846 44.8559 43.9347 45.5063 44.7433 45.5063C45.552 45.5063 46.1862 44.8559 46.1862 44.0787V37.3853C46.1862 36.5922 45.5361 35.9578 44.7433 35.9578H36.4823C35.6895 35.9578 35.0394 36.5922 35.0394 37.3853L35.0235 37.4011ZM46.9632 19.24C46.9632 18.4311 46.2972 17.7649 45.4727 17.7649H35.9907C35.1662 17.7649 34.5002 18.4152 34.5002 19.24C34.5002 20.0648 35.1662 20.6992 35.9907 20.6992H39.6852C39.6852 20.6992 39.6218 20.7468 39.5901 20.7627L34.9125 25.2038C34.3258 25.7907 34.3258 26.7106 34.9125 27.2816C35.4992 27.8527 36.4347 27.8527 37.0055 27.2816L40.6366 23.8556L44.2518 27.2975C44.8385 27.8685 45.774 27.8685 46.3606 27.2975C46.9315 26.7265 46.9315 25.7907 46.3606 25.2197L41.6831 20.7785C41.6831 20.7785 41.6197 20.7309 41.6038 20.7151H45.4727C46.2972 20.7151 46.9632 20.0648 46.9632 19.2558V19.24ZM47.5816 32.6428C47.5816 31.8338 46.9156 31.1677 46.0911 31.1677H42.1112V28.4078C42.1112 27.5989 41.4452 26.9486 40.6207 26.9486C39.7962 26.9486 39.1302 27.5989 39.1302 28.4078V31.1677H35.1028C34.2941 31.1677 33.6282 31.8338 33.6123 32.6428C33.6123 33.4517 34.2783 34.102 35.1028 34.102H40.6207H46.0911C46.9156 34.102 47.5816 33.4517 47.5816 32.6428Z" fill="#F3991E"/>
<path d="M36.4504 59.369V55.6575H40.7474C41.5878 55.6575 42.2538 54.9913 42.2538 54.1824C42.2538 53.3735 41.5878 52.7073 40.7474 52.7073H36.4504V48.964H41.0329C41.8732 48.964 42.555 48.2979 42.555 47.4731C42.555 46.6483 41.7622 45.998 41.0329 45.998H34.9599C34.1354 45.998 33.4536 46.6641 33.4536 47.4731V60.8441C33.4536 61.653 34.1196 62.3351 34.9599 62.3351H41.0329C41.8732 62.3351 42.555 61.6689 42.555 60.8441C42.555 60.0193 41.8732 59.369 41.0329 59.369H36.4504ZM50.388 52.279V45.76C50.388 44.9353 49.7062 44.2691 48.8816 44.2691C48.0571 44.2691 47.3753 44.9353 47.3753 45.76V49.9633H44.6481C43.8235 49.9633 43.1417 50.6136 43.1417 51.4384C43.1417 52.2632 43.8077 52.9293 44.6481 52.9293H47.3753V58.8932C47.3753 59.7021 48.0571 60.3841 48.8816 60.3841C49.7062 60.3841 50.388 59.718 50.388 58.8932V52.2949V52.279Z" fill="#725AA4"/>
<path d="M21.355 56.9576V62.5725C21.355 63.3656 22.0051 64 22.7979 64H29.1562C29.949 64 30.5991 63.3656 30.5991 62.5883C30.5991 61.8111 29.949 61.145 29.1562 61.145H24.2567V56.9576C24.2567 56.1645 23.6066 55.5301 22.8138 55.5301C22.021 55.5301 21.3708 56.1645 21.3708 56.9576H21.355ZM19.0083 50.1848L15.9163 45.6802L15.5358 45.1092C15.2504 44.681 14.7747 44.4589 14.2673 44.4589C13.7599 44.4589 13.3159 44.681 13.0305 45.1092L12.65 45.6802L9.57388 50.1848L8.36881 51.9613C7.90898 52.6433 8.09925 53.5633 8.79692 54.0391C9.47874 54.4991 10.4143 54.3405 10.8741 53.6426L13.6806 49.4711L14.2514 48.6146L14.854 49.4711L17.6605 53.6426C18.1203 54.3246 19.0559 54.4991 19.7377 54.0391C20.4353 53.5633 20.6256 52.6433 20.1658 51.9613L18.9607 50.1848H19.0083ZM25.6996 46.4416V42.0004C25.6996 41.2232 25.0495 40.5729 24.2567 40.5729C23.4639 40.5729 22.8138 41.2232 22.8138 42.0004V45.3471H20.3878C19.595 45.3471 18.9449 45.9816 18.9449 46.7747C18.9449 47.5677 19.595 48.2022 20.3878 48.2022H22.8138V51.8503C22.8138 52.6433 23.4639 53.2778 24.2567 53.2778C25.0495 53.2778 25.6996 52.6433 25.6996 51.8503V46.4574V46.4416ZM30.4881 50.0897V40.3191C30.4881 39.5261 29.838 38.8916 29.0294 38.8916C28.2207 38.8916 27.5865 39.5261 27.5865 40.3191V50.0897C27.5865 50.8827 28.2366 51.5172 29.0294 51.5172C29.8222 51.5172 30.4881 50.8827 30.4881 50.0897Z" fill="#11B5B9"/>
<path d="M62.3276 29.5971C61.9312 29.5971 61.5348 29.4703 61.2177 29.1848L32.2168 3.60051C32.1216 3.5212 32.0265 3.48948 31.9314 3.48948C31.8362 3.48948 31.7728 3.5212 31.6618 3.60051L2.78776 29.1372C2.09009 29.7399 1.04358 29.6765 0.425194 28.9944C-0.193196 28.3124 -0.129771 27.2497 0.567899 26.6311L29.5688 1.03098C30.5043 0.206197 31.1544 0 31.9631 0C32.7876 0.0158613 33.5963 0.333087 34.3891 1.03098L63.4375 26.6787C64.1193 27.2814 64.1986 28.3441 63.5802 29.042C63.2472 29.4227 62.7874 29.5971 62.3276 29.5971Z" fill="#7E7E7E"/>
<path d="M99.4941 23.2148V25.4062H97.8828V30.627C98.5381 30.5732 99.1826 30.5088 99.7949 30.4336L99.9023 32.4531C96.2285 33.0762 91.9531 33.1406 88.8594 33.1406L88.5801 30.9277L90.6641 30.9062V25.4062H89.0742V23.2148H99.4941ZM105.059 21.9258V33.8711H102.33V30.9492H99.9238V28.7578H102.33V27.2539H99.9238V25.1055H102.33V21.9258H105.059ZM98.377 34.1719C102.588 34.1934 105.102 35.5039 105.123 37.8457C105.102 40.123 102.588 41.4766 98.377 41.4766C94.1875 41.4766 91.6523 40.123 91.6523 37.8457C91.6523 35.5039 94.1875 34.1934 98.377 34.1719ZM98.377 36.2773C95.7559 36.2773 94.3809 36.7715 94.3809 37.8457C94.3809 38.877 95.7559 39.3926 98.377 39.3926C100.998 39.3926 102.395 38.877 102.395 37.8457C102.395 36.7715 100.998 36.2773 98.377 36.2773ZM93.3066 30.8418L95.2617 30.7773V25.4062H93.3066V30.8418ZM122.965 21.9258V29.4238H125.736V31.6797H122.965V41.4336H120.215V21.9258H122.965ZM117.744 23.9238C117.722 29.7676 115.445 34.8379 108.871 38.0605L107.324 35.9551C111.954 33.6348 114.435 30.5195 114.951 26.1582H108.441V23.9238H117.744ZM134.103 26.3516C134.103 29.9395 135.736 33.5488 139.044 34.9453L137.433 37.1367C135.199 36.127 133.652 34.1826 132.771 31.7656C131.879 34.3975 130.279 36.5244 127.894 37.6094L126.24 35.332C129.656 33.8926 131.31 30.1543 131.331 26.3516V23.4297H134.103V26.3516ZM142.869 21.9258V41.5195H140.097V21.9258H142.869ZM155.747 24.5039C155.747 27.3613 158.282 30.4336 162.708 31.1855L161.505 33.4629C158.1 32.7861 155.564 30.874 154.308 28.3496C153.008 30.8525 150.473 32.7754 147.089 33.4629L145.907 31.1855C150.247 30.4121 152.804 27.3398 152.825 24.5039V23.0859H155.747V24.5039ZM163.353 36.8145V39.0703H145.456V36.8145H163.353ZM172.643 23.0859V25.2988H167.809V26.8457H171.913V28.9512H167.809V30.6484C169.947 30.6162 171.505 30.5303 173.309 30.2402L173.589 32.3672C171.333 32.7539 169.464 32.8184 166.52 32.8184H165.188V23.0859H172.643ZM181.216 21.9258V33.5918H178.616V21.9258H181.216ZM177.327 22.2266V33.4629H174.727V28.8223H172.751V26.6309H174.727V22.2266H177.327ZM181.216 34.3652V41.2617H167.874V34.3652H181.216ZM170.602 36.5137V39.0703H178.509V36.5137H170.602Z" fill="#1D1D1D"/>
</svg>
