<svg width="24" height="24" viewBox="0 0 24 24" fill="none" xmlns="http://www.w3.org/2000/svg">
<path d="M22.54 6.7484C22.287 5.76496 21.5415 4.99055 20.5949 4.7277C18.8795 4.25 11.9998 4.25 11.9998 4.25C11.9998 4.25 5.12036 4.25 3.40471 4.7277C2.45814 4.99055 1.71277 5.76496 1.45979 6.7484C1 8.5309 1 12.25 1 12.25C1 12.25 1 15.9691 1.45979 17.7516C1.71277 18.735 2.45832 19.5095 3.40489 19.7723C5.12054 20.25 12 20.25 12 20.25C12 20.25 18.8795 20.25 20.5951 19.7723C21.5417 19.5095 22.287 18.7349 22.5402 17.7516C23 15.9691 23 12.25 23 12.25C23 12.25 22.9998 8.5309 22.54 6.7484Z" fill="#FF0000"/>
<path d="M9.80005 15.6783L15.5155 12.2499L9.80005 8.82129V15.6783Z" fill="white"/>
</svg>
