<svg width="24" height="24" viewBox="0 0 24 24" fill="none" xmlns="http://www.w3.org/2000/svg">
<path d="M5.51901 10.1182C5.08181 10.1182 4.72729 10.4839 4.72729 10.935C4.72729 11.386 5.08181 11.7518 5.51901 11.7518C5.95622 11.7518 6.31106 11.386 6.31106 10.935C6.31106 10.4839 5.95639 10.1182 5.51901 10.1182Z" fill="#2FB44A"/>
<path d="M13.3423 10.0322C12.8715 10.0322 12.4895 10.426 12.4895 10.9119C12.4895 11.3978 12.8715 11.7912 13.3423 11.7912C13.8132 11.7912 14.1951 11.3974 14.1951 10.9119C14.1951 10.4263 13.8132 10.0322 13.3423 10.0322Z" fill="#2FB44A"/>
<path d="M20.4231 2H3.57687C1.87743 2 0.5 3.42066 0.5 5.1729V15.4836C0.5 17.2362 1.87743 18.6567 3.57687 18.6567H9.52687L11.5506 23.5738C11.5506 23.5738 11.6898 24 12.0273 24C12.3647 24 12.5038 23.5738 12.5038 23.5738L14.5276 18.6567H20.4231C22.1224 18.6567 23.5 17.2362 23.5 15.4836V5.1729C23.5 3.42049 22.1224 2 20.4231 2ZM7.72588 11.1146C7.7163 12.9992 5.8266 13.0533 5.8266 13.0533C5.09581 13.0533 4.68313 12.5535 4.68313 12.5535V12.8933H3.30684V7.04041C3.30132 7.0394 3.30067 7.03823 3.30684 7.03706V7.04041C3.39214 7.05448 4.68313 7.03706 4.68313 7.03706V9.2757C5.00677 8.7067 5.94293 8.71608 5.94293 8.71608C7.98064 8.91194 7.72605 11.1147 7.72605 11.1147L7.72588 11.1146ZM10.1486 8.89586V12.9035H8.8016V8.9359C8.8016 8.39623 8.15237 8.24627 8.15237 8.24627V6.84706C10.3038 6.93703 10.1486 8.89586 10.1486 8.89586ZM13.3418 13.0558C12.0947 13.0558 11.0838 12.0959 11.0838 10.9122C11.0838 9.72842 12.0949 8.76852 13.3418 8.76852C14.5888 8.76852 15.5999 9.72825 15.5999 10.9122C15.5999 12.0961 14.589 13.0558 13.3418 13.0558ZM20.7216 13.0558C20.7216 13.0558 20.7409 15.092 18.7351 15.092H18.1245V13.7729H18.4928C18.4928 13.7729 19.3357 13.8528 19.3261 12.5136C19.3261 12.5136 19.1614 13.0558 17.9791 13.0558C17.9791 13.0558 16.3027 12.9311 16.3027 11.2444V10.6049C16.3027 10.6049 16.3414 8.85598 18.1827 8.71591C18.1827 8.71591 18.9094 8.63599 19.3552 9.25559V8.82582H20.7218L20.7216 13.0558Z" fill="#2FB44A"/>
<path d="M18.5796 10.0537C18.1194 10.0537 17.7463 10.4384 17.7463 10.9132C17.7463 11.3881 18.1194 11.7726 18.5796 11.7726C19.0399 11.7726 19.4131 11.3879 19.4131 10.9132C19.4131 10.4386 19.0399 10.0537 18.5796 10.0537Z" fill="#2FB44A"/>
</svg>
