<svg width="64" height="64" viewBox="0 0 64 64" fill="none" xmlns="http://www.w3.org/2000/svg">
<circle cx="32" cy="32" r="32" fill="#A0DFE4"/>
<path d="M6.72461 29.3887C6.72416 29.2253 6.76498 29.0642 6.84354 28.9194C6.92211 28.7747 7.03605 28.6505 7.17552 28.5577C7.31499 28.465 7.4758 28.4064 7.64402 28.387C7.81225 28.3676 7.98284 28.388 8.14104 28.4465C8.29924 28.505 8.44029 28.5998 8.55199 28.7226C8.66369 28.8455 8.74269 28.9928 8.78215 29.1517C8.8216 29.3106 8.82033 29.4764 8.77845 29.6347C8.73656 29.7931 8.65532 29.9392 8.54174 30.0604L9.8397 31.9963L8.73169 33.5643L7.76614 30.3933C7.48991 30.3933 7.22499 30.2874 7.02967 30.099C6.83435 29.9106 6.72461 29.6551 6.72461 29.3887Z" fill="white"/>
<path d="M8.73186 33.7797H8.69704C8.65522 33.773 8.61617 33.7551 8.58429 33.7281C8.55242 33.7012 8.52897 33.6661 8.51659 33.627L7.59536 30.5995C7.32266 30.5637 7.06948 30.4431 6.87415 30.2561C6.67883 30.0691 6.552 29.8258 6.51287 29.563C6.47373 29.3002 6.52442 29.0323 6.65726 28.7998C6.7901 28.5673 6.99786 28.3829 7.24909 28.2745C7.50031 28.1661 7.78132 28.1395 8.04957 28.1989C8.31782 28.2583 8.55871 28.4004 8.73577 28.6036C8.91283 28.8069 9.01642 29.0602 9.03085 29.3253C9.04528 29.5904 8.96977 29.8528 8.81576 30.0728L10.0282 31.882C10.0525 31.9173 10.0655 31.9587 10.0655 32.0011C10.0655 32.0434 10.0525 32.0849 10.0282 32.1201L8.92022 33.6881C8.89899 33.7171 8.87072 33.7406 8.83788 33.7565C8.80504 33.7725 8.76863 33.7805 8.73186 33.7797ZM7.76631 28.598C7.5553 28.607 7.356 28.6941 7.20996 28.8413C7.06392 28.9885 6.98241 29.1844 6.98241 29.3881C6.98241 29.5918 7.06392 29.7877 7.20996 29.9349C7.356 30.0821 7.5553 30.1692 7.76631 30.1782C7.81435 30.1783 7.8611 30.1931 7.8998 30.2206C7.9385 30.248 7.96714 30.2867 7.98158 30.3308L8.81417 33.0637L9.57237 31.995L8.35356 30.1827C8.32684 30.1427 8.31453 30.0953 8.31854 30.0478C8.32254 30.0004 8.34264 29.9555 8.37572 29.9201C8.48168 29.8067 8.55124 29.666 8.57596 29.5152C8.60068 29.3643 8.57951 29.2098 8.515 29.0703C8.4505 28.9309 8.34543 28.8124 8.21254 28.7294C8.07965 28.6464 7.92464 28.6023 7.76631 28.6026V28.598Z" fill="#040000"/>
<path d="M57.2757 29.39C57.2755 29.2272 57.2343 29.0669 57.1555 28.9228C57.0768 28.7788 56.963 28.6554 56.8238 28.5632C56.6846 28.471 56.5243 28.4128 56.3567 28.3937C56.189 28.3745 56.0191 28.395 55.8614 28.4533C55.7038 28.5115 55.5632 28.6059 55.4518 28.7282C55.3404 28.8505 55.2614 28.9971 55.2218 29.1554C55.1822 29.3137 55.183 29.4789 55.2242 29.6368C55.2655 29.7947 55.3459 29.9405 55.4586 30.0618L54.1606 31.9977L55.2687 33.5656L56.2342 30.3946C56.5104 30.3946 56.7753 30.2888 56.9707 30.1004C57.166 29.912 57.2757 29.6565 57.2757 29.39Z" fill="white"/>
<path d="M55.2685 33.7802C55.2321 33.7803 55.1962 33.7719 55.164 33.7557C55.1317 33.7395 55.104 33.7159 55.0833 33.6871L53.9752 32.1192C53.951 32.0839 53.938 32.0425 53.938 32.0001C53.938 31.9577 53.951 31.9163 53.9752 31.881L55.1877 30.0718C55.0337 29.8518 54.9582 29.5894 54.9726 29.3243C54.9871 29.0592 55.0907 28.8059 55.2677 28.6026C55.4448 28.3994 55.6857 28.2573 55.9539 28.1979C56.2222 28.1386 56.5032 28.1651 56.7544 28.2735C57.0056 28.3819 57.2134 28.5664 57.3462 28.7989C57.4791 29.0314 57.5297 29.2993 57.4906 29.562C57.4515 29.8248 57.3247 30.0681 57.1293 30.2551C56.934 30.4422 56.6808 30.5627 56.4081 30.5986L55.4853 33.626C55.4734 33.6651 55.4503 33.7002 55.4186 33.7272C55.387 33.7542 55.3481 33.772 55.3064 33.7787L55.2685 33.7802ZM54.4279 31.994L55.1861 33.0627L56.0187 30.3299C56.0332 30.2857 56.0618 30.2471 56.1005 30.2196C56.1392 30.1922 56.186 30.1773 56.234 30.1772C56.4223 30.1775 56.6049 30.1155 56.7514 30.0014C56.8979 29.8874 56.9994 29.7283 57.0388 29.5508C57.0782 29.3732 57.0532 29.188 56.968 29.0261C56.8828 28.8642 56.7425 28.7354 56.5706 28.6614C56.3987 28.5873 56.2057 28.5724 56.0238 28.6192C55.8419 28.666 55.6822 28.7717 55.5714 28.9184C55.4606 29.0652 55.4054 29.2443 55.4151 29.4256C55.4248 29.6069 55.4987 29.7796 55.6246 29.9146C55.6577 29.9499 55.6778 29.9948 55.6818 30.0423C55.6858 30.0897 55.6735 30.1371 55.6468 30.1772L54.4279 31.994Z" fill="#040000"/>
<path d="M11.7649 29.5596C10.2027 30.7283 8.9487 32.2362 8.10484 33.9606C7.26098 35.685 6.85113 37.5772 6.90864 39.4832C6.85798 41.3345 7.24499 43.1726 8.04031 44.8581C8.83564 46.5436 10.0184 48.0324 11.499 49.2115C9.84239 46.1738 8.99902 42.785 9.04546 39.353C9.0919 35.921 10.0267 32.5545 11.7649 29.5596Z" fill="white"/>
<path d="M10.9479 39.1173C10.9395 35.3136 12.0618 31.5872 14.1817 28.3799C13.318 28.6513 12.5028 29.0493 11.7647 29.56C10.0271 32.5543 9.0925 35.9198 9.04579 39.351C8.99907 42.7821 9.84172 46.1701 11.4972 49.2074C12.5264 49.9768 13.7202 50.5155 14.9922 50.7845C12.3115 47.4502 10.8854 43.3362 10.9479 39.1173Z" fill="#00818E"/>
<path d="M14.9923 50.8462C14.9765 50.8477 14.9606 50.8477 14.9448 50.8462C13.6407 50.5717 12.4168 50.0193 11.3628 49.2294C9.85315 48.0318 8.64701 46.5174 7.8364 44.8019C7.02579 43.0863 6.63213 41.2148 6.68544 39.3302C6.63481 37.3915 7.05621 35.4683 7.91582 33.7152C8.77542 31.962 10.0493 30.4277 11.6351 29.2355C12.3917 28.7101 13.2278 28.3002 14.1138 28.0202C14.1576 28.0073 14.2045 28.0076 14.2481 28.021C14.2917 28.0345 14.33 28.0605 14.3579 28.0955C14.3858 28.1305 14.4019 28.173 14.4041 28.2171C14.4063 28.2612 14.3945 28.3049 14.3703 28.3424C12.2779 31.5171 11.1682 35.2018 11.1713 38.9637C11.1134 43.1333 12.5222 47.1987 15.168 50.4966C15.1937 50.5285 15.2096 50.5667 15.2139 50.6069C15.2183 50.6471 15.2109 50.6876 15.1926 50.724C15.1744 50.7603 15.1459 50.791 15.1106 50.8126C15.0752 50.8342 15.0342 50.8458 14.9923 50.8462ZM11.8978 29.5821C10.3695 30.7341 9.14247 32.2156 8.31506 33.9077C7.48765 35.5998 7.08294 37.4554 7.13339 39.3256C7.08017 41.1439 7.45786 42.9499 8.23769 44.6061C9.01753 46.2623 10.1789 47.725 11.6335 48.8828C12.4698 49.5067 13.4179 49.9771 14.4304 50.2706C11.9708 46.9815 10.6718 43.0173 10.7249 38.9622C10.7227 35.3308 11.7342 31.7659 13.6532 28.6416C13.0315 28.8898 12.441 29.2053 11.8931 29.5821H11.8978Z" fill="#040000"/>
<path d="M52.0884 29.5723C53.6595 30.7281 54.9257 32.2252 55.784 33.9418C56.6424 35.6584 57.0688 37.5462 57.0285 39.4517C57.0961 41.3033 56.7255 43.1455 55.945 44.8385C55.1644 46.5315 53.9944 48.0308 52.5237 49.2226C54.1544 46.1716 54.9687 42.7759 54.8927 39.3442C54.8167 35.9124 53.8527 32.5533 52.0884 29.5723Z" fill="white"/>
<path d="M52.9859 39.1177C52.9616 35.3142 51.8081 31.5971 49.6619 28.4062C50.5281 28.6713 51.3471 29.0632 52.09 29.5681C53.8532 32.5484 54.8166 35.9063 54.8926 39.3369C54.9686 42.7675 54.1549 46.1621 52.5253 49.2124C51.5024 49.9899 50.3128 50.538 49.043 50.8169C51.6951 47.4615 53.0855 43.3359 52.9859 39.1177Z" fill="#00818E"/>
<path d="M49.0416 50.878C48.9998 50.8778 48.959 50.8663 48.9236 50.8449C48.8883 50.8235 48.8598 50.793 48.8414 50.7568C48.823 50.7207 48.8154 50.6803 48.8194 50.6403C48.8235 50.6002 48.839 50.562 48.8643 50.53C51.4824 47.2113 52.8562 43.1343 52.7613 38.9651C52.7327 35.2033 51.5916 31.5275 49.4721 28.3697C49.4468 28.3325 49.434 28.2888 49.4355 28.2444C49.437 28.2 49.4527 28.1572 49.4804 28.1217C49.5082 28.0863 49.5466 28.06 49.5905 28.0464C49.6343 28.0329 49.6814 28.0327 49.7254 28.046C50.6137 28.3175 51.4534 28.7192 52.2152 29.2368C53.811 30.4162 55.0978 31.94 55.9722 33.686C56.8467 35.432 57.2844 37.3515 57.2503 39.2903C57.3201 41.1744 56.9428 43.0491 56.1473 44.7713C55.3518 46.4935 54.159 48.0177 52.66 49.2277C51.6138 50.0253 50.3959 50.5871 49.0954 50.8719C49.0779 50.8767 49.0597 50.8787 49.0416 50.878ZM50.1923 28.6643C52.1376 31.7731 53.1802 35.3294 53.2108 38.9605C53.2992 43.0151 52.034 46.9897 49.6019 50.2979C50.6116 49.9958 51.5553 49.5177 52.3862 48.8872C53.831 47.7181 54.9801 46.2463 55.746 44.584C56.5118 42.9217 56.8742 41.1127 56.8055 39.2948C56.8402 37.4245 56.4199 35.5723 55.5785 33.8869C54.7371 32.2015 53.4979 30.7297 51.9604 29.5895C51.4099 29.2144 50.8167 28.9014 50.1923 28.6567V28.6643Z" fill="#040000"/>
<path d="M42.6953 21.8138L47.4834 15.9955C47.4834 15.9955 51.477 10.8611 46.0399 7.37867C46.0399 7.37867 40.9858 4.00615 37.9862 8.61989C37.5604 9.32969 37.2058 10.0771 36.9273 10.8519C36.1928 13.6652 35.6785 16.5277 35.3887 19.4153C33.1001 19.0721 30.7709 19.0633 28.4795 19.3894C28.3291 18.0245 21.1239 21.7497 21.1239 21.7497C17.8611 23.3973 15.1223 25.8673 13.1991 28.8968C11.2759 31.9263 10.2402 35.4021 10.2021 38.9542C10.2021 49.8916 19.8925 58.7573 31.8447 58.7573C43.7969 58.7573 53.4888 49.8916 53.4888 38.9542C53.4528 35.4253 52.4313 31.971 50.5319 28.9547C48.6325 25.9384 45.9253 23.4716 42.6953 21.8138Z" fill="#3CB7C0"/>
<path d="M31.8497 58.9722C19.793 58.9722 9.98242 49.9921 9.98242 38.9539C10.0268 35.3647 11.0757 31.8536 13.0182 28.7919C14.9608 25.7302 17.7248 23.2316 21.0182 21.56C22.055 21.0241 27.2768 18.3829 28.4197 18.9646C28.5057 19.007 28.578 19.0714 28.6286 19.1509C30.8061 18.8587 33.0154 18.8644 35.1912 19.1676C35.4827 16.3438 35.9911 13.5448 36.7123 10.7936C36.9948 9.99824 37.3569 9.23127 37.7934 8.50352C38.1476 7.89229 38.6303 7.35923 39.2107 6.93856C39.791 6.51788 40.4561 6.21889 41.1633 6.06077C42.9182 5.83633 44.6976 6.23812 46.1668 7.19054C46.9007 7.60581 47.536 8.16519 48.0315 8.83244C48.5269 9.49969 48.8715 10.2599 49.0428 11.0638C49.2528 12.8567 48.7636 14.6607 47.6705 16.1249L43.0422 21.7478C46.1686 23.4467 48.8037 25.8743 50.7064 28.8089C52.6697 31.8541 53.7114 35.368 53.7139 38.9539C53.7186 49.9921 43.908 58.9722 31.8497 58.9722ZM27.9353 19.2959C25.5824 19.8618 23.3263 20.7518 21.2366 21.9386C18.013 23.5726 15.3071 26.0163 13.4049 29.0114C11.5028 32.0065 10.475 35.4418 10.4304 38.9539C10.4304 49.7539 20.04 58.5417 31.8497 58.5417C43.6595 58.5417 53.2707 49.7539 53.2707 38.9539C53.2684 35.4459 52.2486 32.0084 50.3265 29.0302C48.4137 26.0851 45.7491 23.6628 42.5879 21.9951L42.3552 21.873L47.308 15.8547C48.3163 14.4853 48.7757 12.8098 48.6012 11.1386C48.4382 10.3924 48.1144 9.68752 47.6509 9.06971C47.1873 8.4519 46.5943 7.93495 45.9104 7.55238C44.536 6.67267 42.8817 6.2938 41.2441 6.48367C40.5979 6.63224 39.991 6.90927 39.4623 7.29703C38.9335 7.6848 38.4945 8.17477 38.1733 8.73558C37.758 9.42824 37.4114 10.1572 37.1381 10.9127C36.4095 13.7139 35.8978 16.5635 35.6075 19.4379L35.5837 19.6638L35.351 19.6287C33.0875 19.2896 30.784 19.2808 28.5178 19.6028L28.2867 19.6363L28.263 19.4119C28.2625 19.3977 28.2578 19.3839 28.2493 19.3723C28.2409 19.3606 28.2291 19.3516 28.2155 19.3463C28.1276 19.308 28.0315 19.2907 27.9353 19.2959Z" fill="#231815"/>
<path d="M47.2193 39.3803C47.2395 32.0455 40.415 26.082 31.9764 26.0604C23.5379 26.0388 16.6807 31.9673 16.6606 39.3021C16.6404 46.637 23.4648 52.6005 31.9034 52.6221C40.342 52.6437 47.1991 46.7152 47.2193 39.3803Z" fill="#F9F9FA"/>
<path d="M27.3261 37.9023C27.3513 38.1119 27.3302 38.3242 27.2642 38.5254C27.1983 38.7266 27.089 38.9121 26.9434 39.0696C26.7979 39.2271 26.6195 39.3532 26.4199 39.4395C26.2203 39.5259 26.004 39.5705 25.7852 39.5705C25.5665 39.5705 25.3502 39.5259 25.1506 39.4395C24.9509 39.3532 24.7725 39.2271 24.627 39.0696C24.4815 38.9121 24.3721 38.7266 24.3062 38.5254C24.2402 38.3242 24.2191 38.1119 24.2443 37.9023C24.2171 37.6916 24.2367 37.4778 24.3017 37.275C24.3667 37.0722 24.4757 36.885 24.6214 36.7259C24.7671 36.5668 24.9463 36.4394 25.1469 36.3521C25.3475 36.2649 25.5651 36.2197 25.7852 36.2197C26.0053 36.2197 26.2229 36.2649 26.4235 36.3521C26.6242 36.4394 26.8033 36.5668 26.949 36.7259C27.0947 36.885 27.2037 37.0722 27.2687 37.275C27.3337 37.4778 27.3533 37.6916 27.3261 37.9023Z" fill="#231815"/>
<path d="M39.875 37.9365C39.9001 38.1461 39.879 38.3584 39.8131 38.5596C39.7471 38.7608 39.6378 38.9462 39.4923 39.1038C39.3467 39.2613 39.1683 39.3874 38.9687 39.4737C38.7691 39.5601 38.5528 39.6047 38.334 39.6047C38.1153 39.6047 37.899 39.5601 37.6994 39.4737C37.4998 39.3874 37.3213 39.2613 37.1758 39.1038C37.0303 38.9462 36.921 38.7608 36.855 38.5596C36.7891 38.3584 36.768 38.1461 36.7931 37.9365C36.766 37.7258 36.7855 37.512 36.8506 37.3092C36.9156 37.1063 37.0246 36.9192 37.1703 36.7601C37.316 36.601 37.4951 36.4736 37.6957 36.3863C37.8964 36.299 38.1139 36.2539 38.334 36.2539C38.5541 36.2539 38.7717 36.299 38.9724 36.3863C39.173 36.4736 39.3521 36.601 39.4978 36.7601C39.6435 36.9192 39.7525 37.1063 39.8175 37.3092C39.8826 37.512 39.9021 37.7258 39.875 37.9365Z" fill="#231815"/>
<path d="M28.834 41.3721C28.9045 42.1329 29.2833 42.8362 29.8882 43.3292C30.493 43.8223 31.2751 44.0654 32.0646 44.0057C32.8541 44.0654 33.6362 43.8223 34.2411 43.3292C34.8459 42.8362 35.2247 42.1329 35.2953 41.3721" fill="#F9F9FA"/>
<path d="M28.5509 41.3718C28.676 45.1886 35.4427 45.1886 35.5694 41.3718C35.5805 41.0237 35.0217 41.0253 35.0106 41.3718C34.9077 44.4909 29.2126 44.4909 29.1097 41.3718C29.0986 41.0253 28.5399 41.0237 28.5509 41.3718Z" fill="#231815"/>
<path d="M32.0601 40.7738C32.6214 40.7738 33.0763 40.335 33.0763 39.7936C33.0763 39.2523 32.6214 38.8135 32.0601 38.8135C31.4989 38.8135 31.0439 39.2523 31.0439 39.7936C31.0439 40.335 31.4989 40.7738 32.0601 40.7738Z" fill="#3CB7C0"/>
<path d="M32.0603 40.9906C31.8149 40.9906 31.5749 40.9204 31.3709 40.7889C31.1668 40.6573 31.0077 40.4704 30.9138 40.2517C30.8199 40.033 30.7953 39.7923 30.8432 39.5601C30.8911 39.3279 31.0093 39.1147 31.1828 38.9473C31.3564 38.7799 31.5775 38.6659 31.8182 38.6197C32.0589 38.5735 32.3084 38.5972 32.5352 38.6878C32.762 38.7784 32.9558 38.9318 33.0921 39.1286C33.2285 39.3255 33.3013 39.5569 33.3013 39.7936C33.3009 40.111 33.17 40.4152 32.9373 40.6395C32.7047 40.8639 32.3893 40.9902 32.0603 40.9906ZM32.0603 39.0287C31.9038 39.0287 31.7508 39.0735 31.6206 39.1574C31.4905 39.2413 31.389 39.3605 31.3291 39.5C31.2692 39.6395 31.2535 39.7929 31.2841 39.941C31.3146 40.0891 31.39 40.2251 31.5007 40.3319C31.6114 40.4386 31.7524 40.5113 31.9059 40.5408C32.0594 40.5702 32.2186 40.5551 32.3632 40.4974C32.5078 40.4396 32.6314 40.3417 32.7184 40.2162C32.8053 40.0907 32.8517 39.9431 32.8517 39.7921C32.8517 39.5896 32.7684 39.3955 32.6199 39.2523C32.4715 39.1092 32.2702 39.0287 32.0603 39.0287Z" fill="#231815"/>
<path d="M26.033 37.2212C26.033 37.3191 26.0029 37.4147 25.9466 37.496C25.8902 37.5774 25.8101 37.6408 25.7164 37.6782C25.6227 37.7157 25.5196 37.7255 25.4201 37.7064C25.3206 37.6873 25.2293 37.6402 25.1575 37.571C25.0858 37.5018 25.037 37.4137 25.0172 37.3177C24.9974 37.2218 25.0075 37.1223 25.0464 37.0319C25.0852 36.9415 25.1509 36.8643 25.2352 36.8099C25.3196 36.7556 25.4187 36.7266 25.5202 36.7266C25.6562 36.7266 25.7866 36.7787 25.8828 36.8714C25.979 36.9642 26.033 37.09 26.033 37.2212Z" fill="white"/>
<path d="M38.3521 37.2212C38.3524 37.3195 38.3225 37.4156 38.2661 37.4975C38.2097 37.5793 38.1293 37.6431 38.0353 37.6809C37.9412 37.7186 37.8376 37.7286 37.7377 37.7095C37.6378 37.6904 37.546 37.6431 37.4739 37.5736C37.4019 37.5041 37.3528 37.4156 37.3331 37.3192C37.3133 37.2228 37.3236 37.1229 37.3627 37.0322C37.4018 36.9414 37.468 36.864 37.5529 36.8096C37.6377 36.7551 37.7374 36.7263 37.8393 36.7266C37.9753 36.7266 38.1057 36.7787 38.2019 36.8714C38.2981 36.9642 38.3521 37.09 38.3521 37.2212Z" fill="white"/>
<path d="M32.2849 40.8438H31.8369V43.9995H32.2849V40.8438Z" fill="#231815"/>
<path d="M41.0067 21.4166L45.0351 15.4135C45.0351 15.4135 47.6705 11.7097 44.3544 9.583C43.4789 9.17131 42.4785 9.07901 41.5379 9.32314C40.5974 9.56727 39.7801 10.1313 39.237 10.9112C38.9767 11.3442 38.7599 11.8003 38.5896 12.2731C37.966 14.3051 37.0273 20.2273 37.0273 20.2273" fill="#F5F2C8"/>
<path d="M23.8089 44.8116C25.0371 44.8116 26.0328 43.8512 26.0328 42.6665C26.0328 41.4819 25.0371 40.5215 23.8089 40.5215C22.5806 40.5215 21.585 41.4819 21.585 42.6665C21.585 43.8512 22.5806 44.8116 23.8089 44.8116Z" fill="#F3AAA9"/>
<path d="M40.2342 44.8116C41.4624 44.8116 42.4581 43.8512 42.4581 42.6665C42.4581 41.4819 41.4624 40.5215 40.2342 40.5215C39.0059 40.5215 38.0103 41.4819 38.0103 42.6665C38.0103 43.8512 39.0059 44.8116 40.2342 44.8116Z" fill="#F3AAA9"/>
<path d="M28.312 19.8544C28.312 19.8544 29.7967 10.514 23.9496 9.78724C18.1025 9.06053 13.3364 11.5567 14.7104 17.0788C14.7104 17.0788 16.0701 20.4025 20.4087 18.7262C20.4087 18.7262 21.751 19.5827 21.417 22.2025" fill="#3CB7C0"/>
<path d="M21.414 22.4193H21.3855C21.3266 22.4121 21.273 22.3826 21.2365 22.3374C21.2001 22.2922 21.1836 22.235 21.1908 22.1781C21.3376 21.6196 21.3393 21.0348 21.1957 20.4756C21.0521 19.9163 20.7677 19.3999 20.3677 18.972C19.7685 19.2369 19.121 19.3851 18.4623 19.4082C17.8037 19.4313 17.1467 19.3287 16.5292 19.1063C15.6272 18.7206 14.905 18.0268 14.5016 17.1582L14.4921 17.1292C14.1901 16.206 14.1333 15.2245 14.3269 14.2746C14.5205 13.3247 14.9583 12.4369 15.6001 11.6926C17.2716 9.8926 20.3265 9.11397 23.9782 9.57199C24.5983 9.63801 25.1975 9.82746 25.7378 10.1284C26.2781 10.4293 26.7477 10.8351 27.117 11.3201C28.1958 12.9269 28.7448 14.8111 28.692 16.7247C28.732 17.7805 28.679 18.8377 28.5337 19.885C28.5292 19.9129 28.5191 19.9398 28.5039 19.964C28.4886 19.9882 28.4686 20.0092 28.445 20.0259C28.4213 20.0427 28.3945 20.0547 28.366 20.0615C28.3375 20.0682 28.3079 20.0694 28.2789 20.0651C28.2499 20.0608 28.222 20.051 28.197 20.0363C28.1719 20.0217 28.15 20.0024 28.1327 19.9795C28.1154 19.9567 28.1028 19.9308 28.0959 19.9033C28.0889 19.8758 28.0876 19.8473 28.0921 19.8193C28.2325 18.7957 28.2854 17.7627 28.2504 16.7308C28.2771 14.9118 27.7612 13.1237 26.7641 11.5796C26.4301 11.1416 26.0056 10.7752 25.5174 10.5035C25.0292 10.2317 24.4878 10.0606 23.9276 10.001C20.4753 9.57351 17.4869 10.3063 15.9357 11.9857C15.345 12.6776 14.9434 13.5012 14.7676 14.3812C14.5917 15.2613 14.6472 16.1698 14.929 17.0239C15.1901 17.563 15.5881 18.0298 16.086 18.3811C16.7173 18.7636 17.4418 18.979 18.1867 19.0058C18.9316 19.0326 19.6707 18.8698 20.3297 18.5338C20.3631 18.521 20.3993 18.5161 20.4351 18.5196C20.4709 18.523 20.5053 18.5347 20.5355 18.5537C20.5956 18.5918 21.9901 19.514 21.6435 22.2376C21.6347 22.2897 21.6065 22.3368 21.5643 22.3702C21.522 22.4037 21.4686 22.4211 21.414 22.4193Z" fill="#231815"/>
<path d="M24.1507 15.6033C24.1507 15.6033 24.4926 14.6124 25.007 14.7773C25.5215 14.9422 26.8891 15.7681 26.5456 19.8933C25.2328 20.1821 23.9856 20.6995 22.8654 21.42C22.8654 21.42 22.7958 18.588 21.9331 17.8399C22.8611 17.2927 23.6253 16.5218 24.1507 15.6033Z" fill="#F5F2C8"/>
<path d="M20.4053 18.7323C21.9168 18.0242 23.2085 16.9448 24.1503 15.6025L20.4053 18.7323Z" fill="#3CB7C0"/>
<path d="M20.407 18.9429C20.3563 18.9423 20.3072 18.9253 20.2678 18.8945C20.2284 18.8637 20.2009 18.8209 20.1899 18.7731C20.1789 18.7253 20.185 18.6754 20.2072 18.6313C20.2293 18.5873 20.2663 18.5518 20.312 18.5306C21.7782 17.8395 23.0328 16.7925 23.9526 15.4925C23.9827 15.4431 24.0318 15.4072 24.0892 15.3927C24.1467 15.3783 24.2077 15.3864 24.2589 15.4154C24.3101 15.4443 24.3473 15.4917 24.3623 15.5471C24.3773 15.6025 24.3689 15.6614 24.3389 15.7108C23.3765 17.0904 22.0498 18.1972 20.4957 18.9169C20.4684 18.9316 20.4381 18.9404 20.407 18.9429Z" fill="#231815"/>
</svg>
