<svg width="24" height="24" viewBox="0 0 24 24" fill="none" xmlns="http://www.w3.org/2000/svg">
<path d="M9.77734 4.7002C11.2132 4.7002 12.4111 5.90302 12.4111 7.42871C12.4111 8.95435 11.2132 10.1572 9.77734 10.1572C8.34163 10.157 7.14459 8.95423 7.14453 7.42871C7.14453 5.90314 8.3416 4.70038 9.77734 4.7002Z" stroke="#2D2D2D" stroke-width="1.4"/>
<path d="M9.77734 13.8428C13.0045 13.8428 15.1536 14.9593 16.2334 15.708C16.6277 15.9816 16.8555 16.479 16.8555 17.0791V19.2998H2.7002V17.0791C2.7002 16.479 2.92794 15.9816 3.32227 15.708C4.40199 14.9594 6.55041 13.8429 9.77734 13.8428Z" stroke="#2D2D2D" stroke-width="1.4"/>
<path d="M18.667 6.28613V13.1433" stroke="#2D2D2D" stroke-width="1.4"/>
<path d="M15.3335 9.71484H22.0002" stroke="#2D2D2D" stroke-width="1.4"/>
</svg>
