<svg width="44" height="40" viewBox="0 0 44 40" fill="none" xmlns="http://www.w3.org/2000/svg">
<path d="M29.499 24.334C29.8672 24.334 30.1659 24.6319 30.166 25C30.166 25.3682 29.8672 25.667 29.499 25.667H14.499C14.131 25.6668 13.833 25.3681 13.833 25C13.8331 24.632 14.131 24.3342 14.499 24.334H29.499ZM29.499 19.334C29.8672 19.334 30.1659 19.6319 30.166 20C30.166 20.3682 29.8672 20.667 29.499 20.667H14.499C14.131 20.6668 13.833 20.3681 13.833 20C13.8331 19.632 14.131 19.3342 14.499 19.334H29.499ZM29.499 14.334C29.8672 14.334 30.1659 14.6319 30.166 15C30.166 15.3682 29.8672 15.667 29.499 15.667H14.499C14.131 15.6668 13.833 15.3681 13.833 15C13.8331 14.632 14.131 14.3342 14.499 14.334H29.499Z" fill="#33363D"/>
</svg>
