<svg width="24" height="24" viewBox="0 0 24 24" fill="none" xmlns="http://www.w3.org/2000/svg">
<path d="M20.2002 3C20.4123 3 20.6156 3.08441 20.7656 3.23438C20.9156 3.38436 20.9999 3.5877 21 3.7998V20.2031C20.9998 20.6448 20.6419 21.0029 20.2002 21.0029H12.8008C12.3591 21.0028 12.0011 20.6447 12.001 20.2031C12.001 19.7614 12.359 19.4025 12.8008 19.4023H19.4004V4.59961L12.8008 4.60059C12.3591 4.60048 12.001 4.24156 12.001 3.7998C12.0012 3.35822 12.3592 3.00011 12.8008 3H20.2002ZM9.22461 6.44531C9.53088 6.12718 10.0371 6.11771 10.3555 6.42383L15.5557 11.4238C15.7123 11.5746 15.8007 11.7826 15.8008 12C15.8008 12.2176 15.7125 12.4263 15.5557 12.5771L10.3555 17.5771C10.037 17.8832 9.53081 17.873 9.22461 17.5547C8.91849 17.2363 8.92796 16.7301 9.24609 16.4238L13.0146 12.7998H3.40234C2.96061 12.7997 2.60254 12.4418 2.60254 12C2.60265 11.5583 2.96067 11.2003 3.40234 11.2002H13.0146L9.24609 7.57715C8.92767 7.27091 8.91839 6.76378 9.22461 6.44531Z" fill="#33363D"/>
</svg>
