<svg width="24" height="16" viewBox="0 0 24 16" fill="none" xmlns="http://www.w3.org/2000/svg">
<g clip-path="url(#clip0_3_286)">
<path d="M0 0H24V16H0V0Z" fill="white"/>
<path d="M8.67181 5.78107C9.2603 4.8984 10.1753 4.28566 11.2156 4.07763C12.2559 3.86961 13.3362 4.08335 14.2189 4.67182C15.1015 5.2603 15.7143 6.17531 15.9223 7.21557C16.1304 8.25582 15.9166 9.33611 15.3281 10.2188L8.67181 5.78107Z" fill="#D0303C"/>
<path d="M8.67189 5.78115C8.08341 6.66382 7.86967 7.74411 8.07769 8.78437C8.28571 9.82463 8.89846 10.7396 9.78114 11.3281C10.6638 11.9166 11.7441 12.1303 12.7844 11.9223C13.8247 11.7143 14.7397 11.1016 15.3282 10.2189C15.6224 9.77756 15.7293 9.23741 15.6253 8.71728C15.5213 8.19715 15.2149 7.73964 14.7735 7.4454C14.3322 7.15116 13.7921 7.04429 13.2719 7.1483C12.7518 7.25231 12.2943 7.55869 12 8.00002L8.67189 5.78115Z" fill="#134A9D"/>
<path d="M11.9999 8.00002C12.6127 7.08098 12.3644 5.83924 11.4453 5.22651C10.5263 4.61379 9.28455 4.8621 8.67182 5.78113C8.05909 6.70017 8.3074 7.9419 9.22644 8.55463C10.1455 9.16736 11.3872 8.91905 11.9999 8.00002Z" fill="#D0303C"/>
<path d="M3.67947 4.85661L5.89827 1.52841L6.45297 1.89821L4.23417 5.22641L3.67947 4.85661ZM4.51152 5.41131L6.73032 2.08311L7.28502 2.45291L5.06622 5.78111L4.51152 5.41131ZM5.34357 5.96601L7.56237 2.63781L8.11707 3.00761L5.89827 6.33581L5.34357 5.96601Z" fill="black"/>
<path d="M19.3035 12.6686L20.3204 11.1432L19.7657 10.7734L18.7488 12.2988L19.3035 12.6686Z" fill="black"/>
<path d="M18.4715 12.1139L19.4884 10.5885L18.9337 10.2187L17.9168 11.7441L18.4715 12.1139Z" fill="black"/>
<path d="M17.7319 12.0214L18.2866 12.3912L17.2696 13.9167L16.7149 13.5469L17.7319 12.0214Z" fill="black"/>
<path d="M17.6394 11.5592L18.6563 10.0338L18.1016 9.66402L17.0847 11.1894L17.6394 11.5592Z" fill="black"/>
<path d="M16.8998 11.4667L17.4545 11.8365L16.4375 13.362L15.8828 12.9922L16.8998 11.4667Z" fill="black"/>
<path d="M18.5639 12.5761L19.1186 12.9459L18.1016 14.4714L17.5469 14.1016L18.5639 12.5761Z" fill="black"/>
<path d="M17.4544 4.16346L16.4374 2.63798L15.8827 3.00778L16.8997 4.53326L17.4544 4.16346Z" fill="black"/>
<path d="M17.0846 4.81061L18.1015 6.33598L18.6562 5.96618L17.6393 4.44081L17.0846 4.81061Z" fill="black"/>
<path d="M18.9336 5.78128L16.7148 2.45308L17.2695 2.08328L19.4883 5.41148L18.9336 5.78128Z" fill="black"/>
<path d="M19.7656 5.22658L18.7487 3.70118L19.3034 3.33138L20.3203 4.85678L19.7656 5.22658Z" fill="black"/>
<path d="M19.1185 3.05403L18.5638 3.42383L17.5468 1.89838L18.1015 1.52858L19.1185 3.05403Z" fill="black"/>
<path d="M3.67938 11.1434L5.89818 14.4716L6.45288 14.1018L4.23408 10.7736L3.67938 11.1434Z" fill="black"/>
<path d="M5.71329 12.3915L6.73023 13.9169L7.28493 13.5471L6.26799 12.0217L5.71329 12.3915Z" fill="black"/>
<path d="M5.52839 12.1141L6.08309 11.7443L5.06613 10.2189L4.51143 10.5887L5.52839 12.1141Z" fill="black"/>
<path d="M5.34348 10.034L7.56228 13.3622L8.11698 12.9924L5.89818 9.66418L5.34348 10.034Z" fill="black"/>
</g>
<defs>
<clipPath id="clip0_3_286">
<rect width="24" height="16" fill="white"/>
</clipPath>
</defs>
</svg>
