<svg width="80" height="80" viewBox="0 0 80 80" fill="none" xmlns="http://www.w3.org/2000/svg">
<path d="M27.1301 47.0085V35.2117C27.1301 34.1807 26.2778 33.3282 25.2075 33.3282L14.4848 33.2489C13.4343 33.2489 12.5623 34.0816 12.5623 35.1324C12.5623 36.1832 13.4343 37.0159 14.4848 37.0159L23.285 37.0952V47.0085C23.285 48.0593 24.1372 48.892 25.2075 48.892C26.2778 48.892 27.1301 48.0593 27.1301 47.0085ZM40.8258 33.1894C40.8258 32.1386 39.9736 31.286 38.9033 31.286H34.8203V25.1993C34.8203 24.1484 33.9681 23.2959 32.8978 23.2959C31.8275 23.2959 30.9752 24.1484 30.9752 25.1993V33.2687V43.3604C30.9752 44.3914 31.8275 45.2439 32.8978 45.2439C33.9681 45.2439 34.8203 44.4112 34.8203 43.3604V35.0729H38.9033C39.9538 35.0729 40.8258 34.2402 40.8258 33.1894Z" fill="#EA502C"/>
<path d="M43.7791 46.7514C43.7791 47.7427 44.5918 48.5358 45.5828 48.5358H54.1054V55.0984C54.1054 56.0699 54.9181 56.8828 55.9289 56.8828C56.9397 56.8828 57.7325 56.0699 57.7325 55.0984V46.7316C57.7325 45.7402 56.9199 44.9472 55.9289 44.9472H45.6026C44.6116 44.9472 43.799 45.7402 43.799 46.7316L43.7791 46.7514ZM58.7037 24.0499C58.7037 23.0388 57.8713 22.2061 56.8406 22.2061H44.9882C43.9575 22.2061 43.1251 23.0189 43.1251 24.0499C43.1251 25.0809 43.9575 25.874 44.9882 25.874H49.6063C49.6063 25.874 49.527 25.9335 49.4873 25.9533L43.6404 31.5047C42.907 32.2383 42.907 33.3883 43.6404 34.102C44.3737 34.8158 45.5431 34.8158 46.2567 34.102L50.7955 29.8195L55.3145 34.1218C56.0478 34.8356 57.2172 34.8356 57.9506 34.1218C58.6641 33.4081 58.6641 32.2383 57.9506 31.5246L52.1036 25.9731C52.1036 25.9731 52.0243 25.9136 52.0045 25.8938H56.8406C57.8713 25.8938 58.7037 25.0809 58.7037 24.0698V24.0499ZM59.4767 40.8034C59.4767 39.7922 58.6443 38.9595 57.6136 38.9595H52.6388V35.5097C52.6388 34.4985 51.8063 33.6857 50.7757 33.6857C49.745 33.6857 48.9126 34.4985 48.9126 35.5097V38.9595H43.8782C42.8674 38.9595 42.035 39.7922 42.0151 40.8034C42.0151 41.8146 42.8476 42.6274 43.8782 42.6274H50.7757H57.6136C58.6443 42.6274 59.4767 41.8146 59.4767 40.8034Z" fill="#F3991E"/>
<path d="M45.5629 74.2113V69.5719H50.9342C51.9846 69.5719 52.8171 68.7392 52.8171 67.728C52.8171 66.7169 51.9846 65.8842 50.9342 65.8842H45.5629V61.2051H51.2909C52.3414 61.2051 53.1937 60.3724 53.1937 59.3414C53.1937 58.3104 52.2027 57.4975 51.2909 57.4975H43.6998C42.6692 57.4975 41.8169 58.3302 41.8169 59.3414V76.0552C41.8169 77.0664 42.6493 77.9189 43.6998 77.9189H51.2909C52.3414 77.9189 53.1937 77.0862 53.1937 76.0552C53.1937 75.0242 52.3414 74.2113 51.2909 74.2113H45.5629ZM62.9849 65.3489V57.2001C62.9849 56.1691 62.1326 55.3364 61.1019 55.3364C60.0713 55.3364 59.219 56.1691 59.219 57.2001V62.4542H55.8099C54.7793 62.4542 53.927 63.2671 53.927 64.298C53.927 65.329 54.7595 66.1617 55.8099 66.1617H59.219V73.6166C59.219 74.6277 60.0713 75.4802 61.1019 75.4802C62.1326 75.4802 62.9849 74.6475 62.9849 73.6166V65.3687V65.3489Z" fill="#725AA4"/>
<path d="M26.694 71.1967V78.2154C26.694 79.2067 27.5066 79.9998 28.4976 79.9998H36.4455C37.4365 79.9998 38.2492 79.2067 38.2492 78.2352C38.2492 77.2637 37.4365 76.431 36.4455 76.431H30.3211V71.1967C30.3211 70.2054 29.5084 69.4124 28.5174 69.4124C27.5264 69.4124 26.7138 70.2054 26.7138 71.1967H26.694ZM23.7606 62.7308L19.8957 57.1L19.42 56.3863C19.0632 55.851 18.4686 55.5734 17.8344 55.5734C17.2001 55.5734 16.6452 55.851 16.2884 56.3863L15.8127 57.1L11.9676 62.7308L10.4613 64.9514C9.88647 65.8039 10.1243 66.9539 10.9964 67.5487C11.8487 68.1236 13.0181 67.9254 13.5928 67.053L17.101 61.8386L17.8145 60.768L18.5677 61.8386L22.0759 67.053C22.6507 67.9055 23.8201 68.1236 24.6723 67.5487C25.5444 66.9539 25.7823 65.8039 25.2075 64.9514L23.7011 62.7308H23.7606ZM32.1247 58.0517V52.5003C32.1247 51.5288 31.3121 50.7159 30.3211 50.7159C29.3301 50.7159 28.5174 51.5288 28.5174 52.5003V56.6837H25.485C24.4939 56.6837 23.6813 57.4767 23.6813 58.4681C23.6813 59.4594 24.4939 60.2525 25.485 60.2525H28.5174V64.8126C28.5174 65.8039 29.3301 66.597 30.3211 66.597C31.3121 66.597 32.1247 65.8039 32.1247 64.8126V58.0715V58.0517ZM38.1104 62.6118V50.3987C38.1104 49.4073 37.2978 48.6143 36.287 48.6143C35.2761 48.6143 34.4833 49.4073 34.4833 50.3987V62.6118C34.4833 63.6032 35.2959 64.3962 36.287 64.3962C37.278 64.3962 38.1104 63.6032 38.1104 62.6118Z" fill="#11B5B9"/>
<path d="M77.9095 36.9964C77.414 36.9964 76.9185 36.8378 76.5221 36.4809L40.271 4.50064C40.152 4.4015 40.0331 4.36185 39.9142 4.36185C39.7953 4.36185 39.716 4.4015 39.5773 4.50064L3.4847 36.4215C2.61261 37.1749 1.30448 37.0956 0.531492 36.243C-0.241495 35.3905 -0.162214 34.0621 0.709874 33.2889L36.961 1.28873C38.1304 0.257746 38.943 0 39.9538 0C40.9845 0.0198266 41.9953 0.416359 42.9863 1.28873L79.2969 33.3483C80.1492 34.1017 80.2483 35.4301 79.4753 36.3025C79.0591 36.7783 78.4843 36.9964 77.9095 36.9964Z" fill="#7E7E7E"/>
</svg>
