<svg width="32" height="32" viewBox="0 0 32 32" fill="none" xmlns="http://www.w3.org/2000/svg">
<path d="M29.835 13.2501C30.8174 14.9517 30.8174 17.0484 29.835 18.7501L25.2988 26.6065C24.3164 28.3081 22.501 29.3564 20.5361 29.3565L11.4639 29.3565C9.49905 29.3564 7.68363 28.3081 6.70117 26.6065L2.16504 18.7501C1.18257 17.0484 1.18258 14.9518 2.16504 13.2501L6.70117 5.39361C7.68363 3.69204 9.49904 2.64369 11.4639 2.64361L20.5361 2.64362C22.5009 2.6437 24.3164 3.69207 25.2988 5.39362L29.835 13.2501Z" fill="white" stroke="#C8C5FF"/>
<rect x="15" y="10" width="2" height="12" rx="1" fill="#7158ED"/>
<rect x="22" y="15" width="2" height="12" rx="1" transform="rotate(90 22 15)" fill="#7158ED"/>
</svg>
