<svg width="32" height="32" viewBox="0 0 32 32" fill="none" xmlns="http://www.w3.org/2000/svg">
<path d="M29.835 13.25C30.8174 14.9517 30.8174 17.0483 29.835 18.75L25.2988 26.6064C24.3164 28.308 22.501 29.3564 20.5361 29.3564L11.4639 29.3564C9.49904 29.3564 7.68363 28.308 6.70117 26.6064L2.16504 18.75C1.24394 17.1546 1.18617 15.212 1.99219 13.5732L2.16504 13.25L6.70117 5.39355C7.68363 3.69199 9.49904 2.64364 11.4639 2.64355L20.5361 2.64355C22.501 2.64364 24.3164 3.69199 25.2988 5.39355L29.835 13.25Z" fill="white" stroke="#C8C5FF"/>
<path fill-rule="evenodd" clip-rule="evenodd" d="M13.6037 21.1567C13.8007 21.3757 14.138 21.3934 14.3569 21.1964L19.6902 16.3966C19.8026 16.2955 19.8668 16.1514 19.8668 16.0002C19.8668 15.849 19.8026 15.7049 19.6903 15.6038L14.3569 10.8034C14.138 10.6064 13.8008 10.6241 13.6037 10.843C13.4067 11.062 13.4244 11.3992 13.6433 11.5963L18.5362 16.0001L13.6434 20.4035C13.4244 20.6006 13.4067 20.9378 13.6037 21.1567Z" fill="#7158ED"/>
</svg>
