<svg width="56" height="56" viewBox="0 0 56 56" fill="none" xmlns="http://www.w3.org/2000/svg">
<path d="M32.7144 52C43.3656 52 52.0001 43.3655 52.0001 32.7143C52.0001 22.0631 43.3656 13.4286 32.7144 13.4286C22.0632 13.4286 13.4287 22.0631 13.4287 32.7143C13.4287 43.3655 22.0632 52 32.7144 52Z" fill="url(#paint0_linear_228_1275)"/>
<path d="M34.8259 24.9417L41.3059 38.3337C41.5779 38.8777 41.7139 39.2857 41.7139 39.5577C41.7139 40.1337 41.2499 40.6537 40.3219 41.1177C39.7779 41.3897 39.3459 41.5257 39.0259 41.5257C38.7219 41.5257 38.4659 41.4537 38.2579 41.3097C38.0659 41.1657 37.9219 41.0137 37.8259 40.8537C37.7459 40.6937 37.6259 40.4537 37.4659 40.1337L36.2179 37.5417H29.5699L28.3219 40.1337C28.1619 40.4537 28.0339 40.6857 27.9379 40.8297C27.8579 40.9737 27.7139 41.1257 27.5059 41.2857C27.3139 41.4297 27.0579 41.5017 26.7379 41.5017C26.4339 41.5017 26.0099 41.3657 25.4659 41.0937C24.5379 40.6457 24.0739 40.1337 24.0739 39.5577C24.0739 39.2857 24.2099 38.8777 24.4819 38.3337L30.9619 24.9177C31.1379 24.5497 31.4019 24.2537 31.7539 24.0297C32.1219 23.8057 32.5059 23.6937 32.9059 23.6937C33.7699 23.6937 34.4099 24.1097 34.8259 24.9417ZM32.8819 30.7017L31.2979 33.9897H34.4899L32.8819 30.7017Z" fill="white"/>
<path d="M17.2857 30.5714C24.6232 30.5714 30.5714 24.6232 30.5714 17.2857C30.5714 9.94822 24.6232 4 17.2857 4C9.94822 4 4 9.94822 4 17.2857C4 24.6232 9.94822 30.5714 17.2857 30.5714Z" fill="#C8C5FF"/>
<path d="M23.4026 20.5914C24.0159 21.0047 24.4559 21.3047 24.7226 21.4914C25.2026 21.8514 25.4426 22.1981 25.4426 22.5314C25.4426 22.8514 25.2426 23.3047 24.8426 23.8914C24.4426 24.4781 24.0359 24.7714 23.6226 24.7714C23.3692 24.7714 22.9826 24.5914 22.4626 24.2314C22.3959 24.1914 22.2092 24.0647 21.9026 23.8514C21.5959 23.6381 21.3559 23.4781 21.1826 23.3714C19.9426 24.3314 18.5492 24.8114 17.0026 24.8114C14.9359 24.8114 13.1892 24.0781 11.7626 22.6114C10.3492 21.1447 9.64258 19.3981 9.64258 17.3714C9.64258 16.2647 9.84258 15.2314 10.2426 14.2714C10.6426 13.2981 11.1759 12.4847 11.8426 11.8314C12.5092 11.1781 13.2759 10.6647 14.1426 10.2914C15.0092 9.91808 15.9026 9.73141 16.8226 9.73141C18.7959 9.73141 20.5092 10.4447 21.9626 11.8714C23.4159 13.2981 24.1426 15.1047 24.1426 17.2914C24.1426 18.3981 23.8959 19.4981 23.4026 20.5914ZM13.1826 17.2714C13.1826 18.4581 13.5626 19.4247 14.3226 20.1714C15.0959 20.9047 15.9559 21.2714 16.9026 21.2714C17.8492 21.2714 18.7026 20.9114 19.4626 20.1914C20.2226 19.4714 20.6026 18.5047 20.6026 17.2914C20.6026 16.0781 20.2159 15.1047 19.4426 14.3714C18.6826 13.6381 17.8292 13.2714 16.8826 13.2714C15.9359 13.2714 15.0826 13.6447 14.3226 14.3914C13.5626 15.1247 13.1826 16.0847 13.1826 17.2714Z" fill="white"/>
<defs>
<linearGradient id="paint0_linear_228_1275" x1="13.4287" y1="32.7143" x2="52.0001" y2="32.7143" gradientUnits="userSpaceOnUse">
<stop stop-color="#ABA2F4"/>
<stop offset="1" stop-color="#7158ED"/>
</linearGradient>
</defs>
</svg>
