<svg width="251" height="46" viewBox="0 0 251 46" fill="none" xmlns="http://www.w3.org/2000/svg">
<g clip-path="url(#clip0_18_146)">
<path d="M24.7336 21.2574V46H45.9762V0H0V21.2574H24.7336Z" fill="#62BB46"/>
<path d="M0 24.7422V45.9913H21.2426V24.7422H0Z" fill="#F5822B"/>
<path d="M66.6343 5.08402H71.7967V7.58053H68.6433C69.7795 8.56101 70.5864 10.0194 70.5864 11.6425C70.5864 14.724 68.0916 17.2452 65.0205 17.2452C61.9494 17.2452 59.4793 14.724 59.4793 11.6425C59.4793 10.0276 60.2615 8.56924 61.3977 7.58053H58.2031V5.08402H63.4973V2.40625H66.6508V5.08402H66.6343ZM67.7129 11.5354C67.7129 9.92049 66.4037 8.40446 65.0123 8.40446C63.6208 8.40446 62.3117 9.91225 62.3117 11.5354C62.3117 13.1585 63.6702 14.6169 65.0123 14.6169C66.3543 14.6169 67.7129 13.1338 67.7129 11.5354ZM63.629 19.338H66.5767V24.4052H76.6545V26.9758H63.629V19.3298V19.338ZM76.3087 10.0194H79.5116V12.623H76.3087V20.6151H73.3858V3.04068H76.3087V10.0194Z" fill="#231F20"/>
<path d="M93.517 12.8046C93.9451 11.132 94.3732 7.86929 94.3238 6.43565H84.2707V3.83203H97.3703C97.4197 6.11432 96.9668 10.5471 96.4399 12.8046H101.405V15.3011H92.5125V18.7781H97.5514V27.3799H94.5956V21.2993H84.0319V18.7781H89.4002V15.3011H80.4338V12.8046H93.5087H93.517Z" fill="#231F20"/>
<path d="M104.912 17.5834L103.224 15.5647C105.208 14.6419 107.102 13.3896 108.592 11.8735C110.033 10.3905 111.095 8.6355 111.318 6.79814H104.418V4.27691H114.875C114.652 7.33369 113.697 9.96203 112.075 12.1619C110.363 14.5019 107.925 16.331 104.92 17.5751L104.912 17.5834ZM108.658 19.3383H111.606V24.4055H121.939V26.9762H108.658V19.3301V19.3383ZM118.497 9.19577V3.04102H121.412V20.6154H118.497V11.7747H114.257V9.19577H118.497Z" fill="#62BB46"/>
<path d="M125.364 17.5831L123.685 15.5644C125.669 14.6416 127.563 13.3893 129.053 11.8732C130.494 10.3902 131.548 8.63519 131.77 6.79783H124.862V4.27661H135.319C135.096 7.33339 134.133 9.96172 132.519 12.1616C130.807 14.5016 128.361 16.3307 125.356 17.5748L125.364 17.5831ZM141.099 22.7903C141.099 25.8141 138.579 28.2859 135.483 28.2859C132.387 28.2859 129.868 25.8224 129.868 22.7903C129.868 19.7582 132.412 17.2453 135.483 17.2453C138.554 17.2453 141.099 19.7088 141.099 22.7903ZM138.176 22.7903C138.176 21.1177 136.965 19.8159 135.483 19.8159C134.001 19.8159 132.733 21.1424 132.733 22.7903C132.733 24.4382 133.919 25.7153 135.409 25.7153C136.899 25.7153 138.176 24.364 138.176 22.7903ZM141.346 8.47865H144.524V11.0823H141.346V17.1052H138.423V3.06543H141.346V8.47865Z" fill="#62BB46"/>
<path d="M147.373 18.5385L145.454 16.5776C147.438 15.7042 149.439 14.2953 150.971 12.6721C152.56 10.9996 153.589 9.03862 153.795 6.99527H146.994V4.42461H157.096C156.973 7.74505 155.985 10.6123 154.379 12.9193C152.691 15.3417 150.295 17.1955 147.373 18.5468V18.5385ZM163.025 9.96966H166.219V12.4909H163.025V23.6881H160.126V3.08984H163.025V9.96142V9.96966Z" fill="#F5822B"/>
<path d="M172.501 6.62511H168.467V4.10388H179.632V6.62511H175.597V7.31721C175.597 8.83324 176.231 10.3658 177.038 11.3297C177.87 12.3597 179.302 13.3731 180.636 14.0982L179.154 16.1662C178.248 15.7378 176.915 14.9715 176.108 14.2547C175.227 13.5132 174.494 12.6892 174.165 12.129C173.934 12.6316 173.432 13.2742 172.452 14.3041C171.423 15.367 170.262 16.1909 169.282 16.743L167.388 14.7243C168.772 14.0075 170.204 12.7881 171.11 11.4863C171.892 10.3987 172.501 8.78381 172.501 7.37489V6.63335V6.62511ZM185.428 22.7906C185.428 25.8144 182.9 28.2862 179.805 28.2862C176.709 28.2862 174.181 25.8227 174.181 22.7906C174.181 19.7585 176.734 17.2456 179.805 17.2456C182.876 17.2456 185.428 19.7091 185.428 22.7906ZM179.731 25.7156C181.196 25.7156 182.497 24.3643 182.497 22.7906C182.497 21.118 181.295 19.8162 179.805 19.8162C178.314 19.8162 177.055 21.1428 177.055 22.7906C177.055 24.4385 178.24 25.7156 179.731 25.7156ZM183.007 8.4048V3.04102H185.93V17.6163H183.007V10.8766H178.701V8.41304H183.007V8.4048Z" fill="#F5822B"/>
<path d="M193.793 6.62511H189.759V4.10388H200.924V6.62511H196.897V7.55615C196.897 9.06394 197.498 10.6624 198.281 11.6923C199.112 12.7551 200.57 13.8427 201.953 14.6667L200.438 16.7924C199.129 16.158 198.272 15.5483 197.391 14.7243C196.56 13.9004 195.778 13.0518 195.448 12.4997C195.251 13.0023 194.765 13.6615 193.785 14.7243C192.756 15.8696 191.941 16.5617 190.558 17.4021L188.697 15.3588C190.08 14.5101 191.595 13.1589 192.501 11.7994C193.209 10.7118 193.793 9.06394 193.793 7.60559V6.62511ZM194.345 19.3136H197.301V24.4138H207.626V26.9844H194.345V19.3136ZM204.176 20.533V3.04102H207.091V20.533H204.176Z" fill="#231F20"/>
<path d="M208.91 17.1629V14.7488H230.021V17.1629H208.91ZM221.005 4.10358H226.728V6.49298H223.879C224.513 7.16036 224.892 8.05844 224.892 9.03892C224.892 11.7497 222.323 13.8424 219.424 13.8424C216.526 13.8424 213.982 11.692 213.982 9.03892C213.982 8.05844 214.361 7.15212 214.937 6.49298H212.113V4.10358H217.86V1.95312H221.005V4.10358ZM219.548 18.1928C222.652 18.1928 225.27 20.4503 225.27 23.2352C225.27 26.0201 222.652 28.2777 219.548 28.2777C216.444 28.2777 213.826 26.0448 213.826 23.2352C213.826 20.4256 216.469 18.1928 219.548 18.1928ZM219.474 25.9212C221.005 25.9212 222.29 24.7513 222.29 23.2352C222.29 21.7192 221.079 20.5822 219.548 20.5822C218.016 20.5822 216.724 21.7522 216.724 23.2352C216.724 24.7183 217.934 25.9212 219.474 25.9212ZM221.911 9.03892C221.911 7.63 220.799 6.54241 219.416 6.54241C218.033 6.54241 216.946 7.63 216.946 9.03892C216.946 10.4478 218.082 11.5354 219.416 11.5354C220.75 11.5354 221.911 10.4478 221.911 9.03892Z" fill="#231F20"/>
<path d="M237.341 16.4458H236.682L231.594 16.4705V14.0564H235.801C238.847 14.0564 244.545 13.6856 246.719 13.422V15.7867C245.409 15.9762 242.857 16.1574 240.338 16.3469V19.5603H237.341V16.454V16.4458ZM233.306 8.34657C233.306 5.3969 235.875 3.03223 238.905 3.03223C241.935 3.03223 244.496 5.3969 244.496 8.34657C244.496 11.2962 241.704 13.4632 238.905 13.4632C236.105 13.4632 233.306 11.2633 233.306 8.34657ZM241.474 8.34657C241.474 6.80582 240.165 5.56169 238.905 5.56169C237.645 5.56169 236.336 6.80582 236.336 8.34657C236.336 9.88732 237.67 11.1067 238.905 11.1067C240.14 11.1067 241.474 9.8626 241.474 8.34657ZM237.365 20.5572H240.313V24.405H250.621V26.9756H237.373V20.549L237.365 20.5572ZM247.542 19.3378H242.808V17.0308H247.542V3.06518H250.465V21.2987H247.542V19.3378Z" fill="#231F20"/>
<path d="M58.8618 34.7197H59.8004V38.724H59.8334C60.0227 38.4027 60.2204 38.1143 60.4015 37.8342L62.6246 34.7197H63.7855L61.1507 38.2461L63.9913 43.0249H62.8798L60.5003 38.9547L59.8004 39.8693V43.0332H58.8618V34.7362V34.7197Z" fill="#808285"/>
<path d="M67.4164 43.1568C65.4898 43.1568 64.1477 41.4595 64.1477 38.9465C64.1477 36.3099 65.5721 34.5879 67.5152 34.5879C69.4583 34.5879 70.7922 36.3181 70.7922 38.7817C70.7922 41.6243 69.269 43.1568 67.4247 43.1568H67.4164ZM67.4658 42.2752C68.9561 42.2752 69.8042 40.7097 69.8042 38.8311C69.8042 37.1833 69.0467 35.4613 67.4823 35.4613C65.9179 35.4613 65.1357 37.1256 65.1357 38.9218C65.1357 40.7179 65.9756 42.2834 67.4576 42.2834H67.4658V42.2752Z" fill="#808285"/>
<path d="M72.126 34.8434C72.6035 34.728 73.2869 34.6621 73.9291 34.6621C74.9336 34.6621 75.5841 34.8846 76.0452 35.346C76.3992 35.7003 76.6133 36.2688 76.6133 36.9197C76.6133 38.0073 75.9957 38.7323 75.2383 39.0207V39.0619C75.7899 39.2844 76.1193 39.8693 76.3086 40.7345C76.5474 41.888 76.7203 42.6872 76.8603 43.0085H75.8887C75.7734 42.7778 75.6088 42.061 75.4112 41.0311C75.1971 39.8858 74.7936 39.4491 73.9456 39.4162H73.0646V43.0085H72.126V34.8351V34.8434ZM73.0646 38.6087H74.0279C75.0324 38.6087 75.6664 37.9825 75.6664 37.035C75.6664 35.9639 74.9913 35.4943 73.995 35.4943C73.5422 35.4943 73.2293 35.5437 73.0646 35.5932V38.6087Z" fill="#808285"/>
<path d="M81.7922 39.1199H78.9763V42.1108H82.1298V43.0089H78.0212V34.7119H81.9651V35.61H78.9763V38.2301H81.7922V39.1117V39.1199Z" fill="#808285"/>
<path d="M84.6329 40.4053L83.8754 43.0089H82.9038L85.3739 34.7119H86.5101L88.9884 43.0089H87.9839L87.2017 40.4053H84.6246H84.6329ZM87.0206 39.5649L86.296 37.1755C86.1478 36.6317 86.0408 36.1455 85.9255 35.6594H85.8926C85.802 36.1373 85.6785 36.6564 85.5385 37.159L84.8305 39.5566H87.0206V39.5649Z" fill="#808285"/>
<path d="M90.1658 43.0167V34.7197H91.2032L93.5251 38.9218C94.052 39.894 94.4802 40.7509 94.8177 41.616H94.8507C94.7683 40.4955 94.7519 39.482 94.7519 38.2049V34.7197H95.6329V43.0167H94.686L92.3806 38.8064C91.8701 37.8836 91.3843 36.9361 91.0303 36.038L90.9974 36.0545C91.055 37.1009 91.0632 38.0978 91.0632 39.4738V43.0167H90.1822H90.1658Z" fill="#808285"/>
<path d="M101.792 34.7197V43.0167H100.845V34.7197H101.792Z" fill="#808285"/>
<path d="M103.537 43.0167V34.7197H104.575L106.896 38.9218C107.432 39.894 107.86 40.7509 108.189 41.616H108.222C108.131 40.4955 108.115 39.482 108.115 38.2049V34.7197H108.996V43.0167H108.049L105.735 38.8064C105.233 37.8836 104.739 36.9361 104.393 36.038L104.36 36.0545C104.418 37.1009 104.426 38.0978 104.426 39.4738V43.0167H103.545H103.537Z" fill="#808285"/>
<path d="M110.635 41.7071C111.054 42.0202 111.655 42.2509 112.306 42.2509C113.269 42.2509 113.829 41.6824 113.829 40.8337C113.829 40.0675 113.442 39.6143 112.462 39.1941C111.277 38.708 110.536 37.9911 110.536 36.8294C110.536 35.5441 111.474 34.5801 112.891 34.5801C113.623 34.5801 114.175 34.7778 114.488 34.9838L114.233 35.8572C114.01 35.6924 113.516 35.4617 112.858 35.4617C111.87 35.4617 111.491 36.1373 111.491 36.7058C111.491 37.4803 111.927 37.8593 112.932 38.3042C114.167 38.8563 114.784 39.5237 114.784 40.7431C114.784 42.0202 113.961 43.1489 112.248 43.1489C111.548 43.1489 110.783 42.9018 110.396 42.6052L110.643 41.7071H110.635Z" fill="#808285"/>
<path d="M117.551 35.6265H115.344V34.7119H120.729V35.6265H118.506V43.0089H117.551V35.6265Z" fill="#808285"/>
<path d="M122.59 34.7197V43.0167H121.635V34.7197H122.59Z" fill="#808285"/>
<path d="M125.718 35.6265H123.503V34.7119H128.888V35.6265H126.665V43.0089H125.71V35.6265H125.718Z" fill="#808285"/>
<path d="M130.741 34.7197V39.6468C130.741 41.4924 131.465 42.2752 132.437 42.2752C133.516 42.2752 134.207 41.4677 134.207 39.6468V34.7197H135.162V39.5727C135.162 42.1186 133.985 43.1568 132.412 43.1568C130.922 43.1568 129.802 42.1928 129.802 39.6056V34.7197H130.749H130.741Z" fill="#808285"/>
<path d="M138.274 35.6265H136.06V34.7119H141.444V35.6265H139.221V43.0089H138.274V35.6265Z" fill="#808285"/>
<path d="M146.121 39.1199H143.305V42.1108H146.459V43.0089H142.358V34.7119H146.294V35.61H143.305V38.2301H146.121V39.1117V39.1199Z" fill="#808285"/>
<path d="M151.25 34.7197H155.17V35.6178H152.206V38.378H154.947V39.2596H152.206V43.0167H151.259V34.7197H151.25Z" fill="#808285"/>
<path d="M159.459 43.1568C157.525 43.1568 156.191 41.4595 156.191 38.9465C156.191 36.3099 157.615 34.5879 159.558 34.5879C161.501 34.5879 162.835 36.3181 162.835 38.7817C162.835 41.6243 161.32 43.1568 159.468 43.1568H159.459ZM159.501 42.2752C160.991 42.2752 161.831 40.7097 161.831 38.8311C161.831 37.1833 161.073 35.4613 159.509 35.4613C157.944 35.4613 157.17 37.1256 157.17 38.9218C157.17 40.7179 158.01 42.2834 159.492 42.2834H159.501V42.2752Z" fill="#808285"/>
<path d="M164.161 34.8434C164.638 34.728 165.33 34.6621 165.964 34.6621C166.969 34.6621 167.619 34.8846 168.08 35.346C168.434 35.7003 168.656 36.2688 168.656 36.9197C168.656 38.0073 168.039 38.7323 167.281 39.0207V39.0619C167.833 39.2844 168.162 39.8693 168.352 40.7345C168.591 41.888 168.763 42.6872 168.903 43.0085H167.932C167.808 42.7778 167.652 42.061 167.454 41.0311C167.24 39.8858 166.845 39.4491 165.989 39.4162H165.1V43.0085H164.161V34.8351V34.8434ZM165.1 38.6087H166.063C167.067 38.6087 167.701 37.9825 167.701 37.035C167.701 35.9639 167.026 35.4943 166.03 35.4943C165.577 35.4943 165.264 35.5437 165.1 35.5932V38.6087Z" fill="#808285"/>
<path d="M174.486 34.7197V38.1885H178.001V34.7197H178.957V43.0167H178.001V39.1278H174.486V43.0167H173.539V34.7197H174.486Z" fill="#808285"/>
<path d="M184.448 39.1199H181.632V42.1108H184.786V43.0089H180.686V34.7119H184.629V35.61H181.632V38.2301H184.448V39.1117V39.1199Z" fill="#808285"/>
<path d="M187.289 40.4053L186.531 43.0089H185.568L188.038 34.7119H189.174L191.653 43.0089H190.648L189.866 40.4053H187.289ZM189.677 39.5649L188.952 37.1755C188.804 36.6317 188.689 36.1455 188.582 35.6594H188.557C188.458 36.1373 188.343 36.6564 188.195 37.159L187.487 39.5566H189.677V39.5649Z" fill="#808285"/>
<path d="M192.813 34.7197H193.76V42.1186H196.873V43.0167H192.813V34.7197Z" fill="#808285"/>
<path d="M198.445 35.6265H196.23V34.7119H201.615V35.6265H199.392V43.0089H198.445V35.6265Z" fill="#808285"/>
<path d="M203.468 34.7197V38.1885H206.984V34.7197H207.93V43.0167H206.984V39.1278H203.468V43.0167H202.513V34.7197H203.468Z" fill="#808285"/>
<path d="M211.29 43.0167V39.4985L208.984 34.7197H210.063L211.092 37.0103C211.364 37.6364 211.586 38.139 211.817 38.7158H211.833C212.031 38.172 212.286 37.6364 212.566 37.0103L213.612 34.7197H214.666L212.237 39.482V43.0167H211.282H211.29Z" fill="#808285"/>
<path d="M219.079 34.7197H222.998V35.6178H220.025V38.378H222.767V39.2596H220.025V43.0167H219.079V34.7197Z" fill="#808285"/>
<path d="M224.793 40.4053L224.043 43.0089H223.072L225.542 34.7119H226.678L229.156 43.0089H228.152L227.378 40.4053H224.793ZM227.18 39.5649L226.456 37.1755C226.308 36.6317 226.201 36.1455 226.085 35.6594H226.052C225.954 36.1373 225.838 36.6564 225.69 37.159L224.982 39.5566H227.172L227.18 39.5649Z" fill="#808285"/>
<path d="M236.46 39.3749C236.402 38.2132 236.344 36.8125 236.344 35.7908H236.32C236.064 36.7466 235.776 37.8012 235.406 38.9465L234.121 42.9673H233.413L232.228 39.0206C231.882 37.8342 231.602 36.7796 231.396 35.7908H231.371C231.355 36.8207 231.297 38.2049 231.231 39.4573L231.034 43.0167H230.136L230.638 34.7197H231.832L233.076 38.7323C233.38 39.7539 233.619 40.6685 233.808 41.5254H233.825C234.022 40.6932 234.278 39.7787 234.607 38.7323L235.9 34.7197H237.102L237.555 43.0167H236.624L236.451 39.3749H236.46Z" fill="#808285"/>
<path d="M240.049 34.7197V43.0167H239.103V34.7197H240.049Z" fill="#808285"/>
<path d="M241.787 43.0167H245.846V42.1186H242.742V34.7197H241.787V43.0167Z" fill="#808285"/>
<path d="M247.624 43.0167V39.4985L245.311 34.7197H246.389L247.41 37.0103C247.682 37.6364 247.913 38.139 248.135 38.7158H248.151C248.349 38.172 248.612 37.6364 248.884 37.0103L249.93 34.7197H250.992L248.563 39.482V43.0167H247.616H247.624Z" fill="#808285"/>
</g>
<defs>
<clipPath id="clip0_18_146">
<rect width="251" height="46" fill="white"/>
</clipPath>
</defs>
</svg>
