<svg preserveAspectRatio="none" width="100%" height="100%" overflow="visible" style="display: block;" viewBox="0 0 18 22.0001" fill="none" xmlns="http://www.w3.org/2000/svg">
<g id="padlock-square-1--combination-combo-lock-locked-padlock-secure-security-shield-keyhole">
<path id="Vector" d="M15.4 8.69238H2.6C1.71635 8.69238 1 9.38118 1 10.2308V19.4616C1 20.3113 1.71635 21.0001 2.6 21.0001H15.4C16.2837 21.0001 17 20.3113 17 19.4616V10.2308C17 9.38118 16.2837 8.69238 15.4 8.69238Z" stroke="var(--stroke-0, #747478)" stroke-width="2" stroke-linecap="round" stroke-linejoin="round"/>
<path id="Vector_2" d="M14.5999 8.69231V6.38462C14.5999 4.95652 14.01 3.58692 12.9597 2.57712C11.9095 1.56731 10.4851 1 8.99992 1C7.51471 1 6.09032 1.56731 5.04013 2.57712C3.98992 3.58692 3.39992 4.95652 3.39992 6.38462V8.69231" stroke="var(--stroke-0, #747478)" stroke-width="2" stroke-linecap="round" stroke-linejoin="round"/>
<path id="Vector_3" d="M9.00027 15.6151C9.4421 15.6151 9.80027 15.2707 9.80027 14.8459C9.80027 14.4211 9.4421 14.0767 9.00027 14.0767C8.55845 14.0767 8.20027 14.4211 8.20027 14.8459C8.20027 15.2707 8.55845 15.6151 9.00027 15.6151Z" stroke="var(--stroke-0, #747478)" stroke-width="2" stroke-linecap="round" stroke-linejoin="round"/>
</g>
</svg>
