<svg width="48" height="48" viewBox="0 0 48 48" fill="none" xmlns="http://www.w3.org/2000/svg">
<path d="M34.2595 44.5104C34.2595 45.5367 33.4266 46.3696 32.4003 46.3696C31.374 46.3696 30.541 45.5367 30.541 44.5104V28.1395C30.541 27.1132 31.374 26.2803 32.4003 26.2803C33.4266 26.2803 34.2595 27.1132 34.2595 28.1395V44.5104Z" fill="white" stroke="#222A2B" stroke-width="1.6"/>
<path d="M37.9988 38.4924C37.9988 39.5187 37.1658 40.3516 36.1395 40.3516C35.1132 40.3516 34.2803 39.5187 34.2803 38.4924V28.1453C34.2803 27.1191 35.1132 26.2861 36.1395 26.2861C37.1658 26.2861 37.9988 27.1191 37.9988 28.1453V38.4924Z" fill="white" stroke="#222A2B" stroke-width="1.6"/>
<path d="M37.5 17C37.5 18.6577 36.1578 20 34.5 20C32.8423 20 31.5 18.6577 31.5 17C31.5 15.3422 32.8423 14 34.5 14C36.1578 14 37.5 15.3422 37.5 17Z" fill="white" stroke="#222A2B" stroke-width="1.6"/>
<path d="M39.0905 27.3544H37.086C36.5337 27.3544 36.086 27.8021 36.086 28.3544V29.2944C36.086 29.8467 36.5337 30.2944 37.086 30.2944H39.4723C40.687 30.2944 40.5928 28.5046 40.5928 28.5046V23.8987C40.5928 22.8378 39.7351 21.98 38.6741 21.98H29.8488C29.8488 21.98 29.5761 22.0147 28.8324 21.2711L23.6066 16.0455C23.1009 15.5447 22.2878 15.5447 21.787 16.0455C21.2813 16.5512 21.2813 17.3643 21.787 17.865L29.6951 25.7728C30.103 26.1807 30.339 26.5909 30.4483 26.8117C30.5017 26.9197 30.5231 27.0393 30.5231 27.1599V32.051C30.5231 32.6033 30.9708 33.051 31.5231 33.051H36.0711" fill="white"/>
<path d="M39.0905 27.3544H37.086C36.5337 27.3544 36.086 27.8021 36.086 28.3544V29.2944C36.086 29.8467 36.5337 30.2944 37.086 30.2944H39.4723C40.687 30.2944 40.5928 28.5046 40.5928 28.5046V23.8987C40.5928 22.8378 39.7351 21.98 38.6741 21.98H29.8488C29.8488 21.98 29.5761 22.0147 28.8324 21.2711L23.6066 16.0455C23.1009 15.5447 22.2878 15.5447 21.787 16.0455C21.2813 16.5512 21.2813 17.3643 21.787 17.865L29.6951 25.7728C30.103 26.1807 30.339 26.5909 30.4483 26.8117C30.5017 26.9197 30.5231 27.0393 30.5231 27.1599V32.051C30.5231 32.6033 30.9708 33.051 31.5231 33.051H36.0711" stroke="#222A2B" stroke-width="1.6"/>
<path d="M17.2178 21.0908C17.2178 22.242 16.2836 23.1701 15.1384 23.1701C13.9873 23.1701 13.0591 22.2359 13.0591 21.0908V18.2883C13.0591 17.1371 13.9873 16.209 15.1384 16.209C16.2896 16.209 17.2178 17.1432 17.2178 18.2883V21.0908Z" fill="white" stroke="#177E8B" stroke-width="1.6"/>
<path d="M18.4571 14.4521C20.7233 13.2588 22.2722 10.8782 22.2722 8.1359C22.2722 4.19429 19.0778 1 15.1361 1C11.1944 1 8 4.19429 8 8.1359C8 10.8782 9.54293 13.2588 11.8152 14.4521V16.6339H18.4571V14.4521Z" fill="white" stroke="#177E8B" stroke-width="1.6"/>
<path d="M11.8101 16.6299V18.4982V20.3666H18.458V18.4982V16.6299H11.8101Z" fill="white" stroke="#177E8B" stroke-width="1.6"/>
<path d="M22.365 26.8578C22.365 27.9174 21.5092 28.7732 20.4496 28.7732C19.3899 28.7732 18.5342 27.9174 18.5342 26.8578C18.5342 25.7981 19.3899 24.9424 20.4496 24.9424C21.5092 24.9424 22.365 25.7981 22.365 26.8578Z" stroke="#177E8B" stroke-width="1.6"/>
</svg>
